Mailpile.ufo
<glyph name="quotedbl" format="1">
  <advance width="811"/>
  <unicode hex="0022"/>
  <outline>
    <contour>
      <point x="287" y="1004" type="line"/>
      <point x="195" y="1004" type="line"/>
      <point x="156" y="1495" type="line"/>
      <point x="324" y="1495" type="line"/>
    </contour>
    <contour>
      <point x="616" y="1004" type="line"/>
      <point x="524" y="1004" type="line"/>
      <point x="487" y="1495" type="line"/>
      <point x="655" y="1495" type="line"/>
    </contour>
  </outline>
</glyph>
<glyph name="numbersign" format="1">
  <advance width="1632"/>
  <unicode hex="0023"/>
  <outline>
    <contour>
      <point x="1252" y="1161" type="line"/>
      <point x="1522" y="1161" type="line"/>
      <point x="1502" y="1036" type="line"/>
      <point x="1229" y="1036" type="line"/>
      <point x="1128" y="526" type="line"/>
      <point x="1412" y="526" type="line"/>
      <point x="1389" y="401" type="line"/>
      <point x="1104" y="401" type="line"/>
      <point x="1024" y="0" type="line"/>
      <point x="860" y="0" type="line"/>
      <point x="944" y="401" type="line"/>
      <point x="564" y="401" type="line"/>
      <point x="480" y="0" type="line"/>
      <point x="318" y="0" type="line"/>
      <point x="402" y="401" type="line"/>
      <point x="108" y="401" type="line"/>
      <point x="130" y="526" type="line"/>
      <point x="425" y="526" type="line"/>
      <point x="528" y="1036" type="line"/>
      <point x="220" y="1036" type="line"/>
      <point x="241" y="1161" type="line"/>
      <point x="551" y="1161" type="line"/>
      <point x="636" y="1577" type="line"/>
      <point x="798" y="1577" type="line"/>
      <point x="712" y="1161" type="line"/>
      <point x="1092" y="1161" type="line"/>
      <point x="1175" y="1577" type="line"/>
      <point x="1339" y="1577" type="line"/>
    </contour>
    <contour>
      <point x="690" y="1036" type="line"/>
      <point x="587" y="526" type="line"/>
      <point x="967" y="526" type="line"/>
      <point x="1068" y="1036" type="line"/>
    </contour>
  </outline>
</glyph>
<glyph name="dollar" format="1">
  <advance width="1116"/>
  <unicode hex="0024"/>
  <outline>
    <contour>
      <point x="123" y="1145" type="qcurve" smooth="yes"/>
      <point x="123" y="1237"/>
      <point x="190" y="1378"/>
      <point x="250.5" y="1426.5" type="qcurve" smooth="yes" name="inserted"/>
      <point x="311" y="1475"/>
      <point x="477" y="1524"/>
      <point x="575" y="1524" type="qcurve" smooth="yes"/>
      <point x="598" y="1524" type="line"/>
      <point x="614" y="1712" type="line"/>
      <point x="709" y="1712" type="line"/>
      <point x="692" y="1516" type="line"/>
      <point x="758.5" y="1506.5" name="inserted"/>
      <point x="910.0" y="1460.0"/>
      <point x="995" y="1423" type="qcurve"/>
      <point x="944" y="1300" type="line"/>
      <point x="868.5" y="1336.0" name="inserted"/>
      <point x="736.5" y="1381.5"/>
      <point x="680" y="1391" type="qcurve"/>
      <point x="631" y="811" type="line"/>
      <point x="722.0" y="771.0" name="inserted"/>
      <point x="834.5" y="714.5"/>
      <point x="856" y="698" type="qcurve" smooth="yes"/>
      <point x="911" y="655"/>
      <point x="983" y="575"/>
      <point x="1002.5" y="536.5" type="qcurve" smooth="yes" name="inserted"/>
      <point x="1022" y="498"/>
      <point x="1038" y="416"/>
      <point x="1038" y="369" type="qcurve" smooth="yes"/>
      <point x="1038" y="276"/>
      <point x="971" y="129"/>
      <point x="909.5" y="78.0" type="qcurve" smooth="yes" name="inserted"/>
      <point x="848" y="27"/>
      <point x="672" y="-29"/>
      <point x="565" y="-29" type="qcurve" smooth="yes"/>
      <point x="559" y="-29" type="line"/>
      <point x="543" y="-215" type="line"/>
      <point x="449" y="-215" type="line"/>
      <point x="465" y="-20" type="line"/>
      <point x="315" y="6"/>
      <point x="115" y="215"/>
      <point x="78" y="387" type="qcurve"/>
      <point x="221" y="422" type="line"/>
      <point x="253.0" y="289.0" name="inserted"/>
      <point x="380.0" y="131.0"/>
      <point x="475" y="106" type="qcurve"/>
      <point x="526" y="692" type="line"/>
      <point x="399" y="748"/>
      <point x="242" y="848"/>
      <point x="198.0" y="901.0" type="qcurve" smooth="yes" name="inserted"/>
      <point x="154" y="954"/>
      <point x="123" y="1073"/>
    </contour>
    <contour>
      <point x="616" y="651" type="qcurve"/>
      <point x="569" y="96" type="line"/>
      <point x="717" y="96"/>
      <point x="874" y="238"/>
      <point x="874" y="354" type="qcurve" smooth="yes"/>
      <point x="874" y="469"/>
      <point x="741" y="596"/>
    </contour>
    <contour>
      <point x="541" y="852" type="qcurve"/>
      <point x="588" y="1399" type="line"/>
      <point x="575" y="1399" type="line" smooth="yes"/>
      <point x="444" y="1399"/>
      <point x="287" y="1266"/>
      <point x="287" y="1153" type="qcurve" smooth="yes"/>
      <point x="287" y="1040"/>
      <point x="418" y="909"/>
    </contour>
  </outline>
</glyph>
<glyph name="percent" format="1">
  <advance width="1850"/>
  <unicode hex="0025"/>
  <outline>
    <contour>
      <point x="1655.0" y="554.0" type="qcurve" smooth="yes"/>
      <point x="1627.0" y="582.0"/>
      <point x="1564.0" y="624.0"/>
      <point x="1528.0" y="639.0" type="qcurve" smooth="yes"/>
      <point x="1492.0" y="655.0"/>
      <point x="1414.0" y="671.0"/>
      <point x="1374.0" y="671.0" type="qcurve" smooth="yes"/>
      <point x="1334.0" y="671.0"/>
      <point x="1256.0" y="655.0"/>
      <point x="1219.0" y="639.0" type="qcurve" smooth="yes"/>
      <point x="1184.0" y="624.0"/>
      <point x="1120.0" y="582.0"/>
      <point x="1093.0" y="554.0" type="qcurve" smooth="yes"/>
      <point x="1066.0" y="527.0"/>
      <point x="1023.0" y="463.0"/>
      <point x="1008.0" y="428.0" type="qcurve" smooth="yes"/>
      <point x="993.0" y="392.0"/>
      <point x="977.0" y="314.0"/>
      <point x="977.0" y="274.0" type="qcurve" smooth="yes"/>
      <point x="977.0" y="234.0"/>
      <point x="993.0" y="156.0"/>
      <point x="1008.0" y="119.0" type="qcurve" smooth="yes"/>
      <point x="1023.0" y="84.0"/>
      <point x="1066.0" y="20.0"/>
      <point x="1093.0" y="-7.0" type="qcurve" smooth="yes"/>
      <point x="1120.0" y="-34.0"/>
      <point x="1184.0" y="-77.0"/>
      <point x="1219.0" y="-92.0" type="qcurve" smooth="yes"/>
      <point x="1256.0" y="-107.0"/>
      <point x="1334.0" y="-123.0"/>
      <point x="1374.0" y="-123.0" type="qcurve" smooth="yes"/>
      <point x="1414.0" y="-123.0"/>
      <point x="1492.0" y="-107.0"/>
      <point x="1528.0" y="-92.0" type="qcurve" smooth="yes"/>
      <point x="1564.0" y="-77.0"/>
      <point x="1627.0" y="-34.0"/>
      <point x="1655.0" y="-7.0" type="qcurve" smooth="yes"/>
      <point x="1682.0" y="20.0"/>
      <point x="1725.0" y="84.0"/>
      <point x="1740.0" y="119.0" type="qcurve" smooth="yes"/>
      <point x="1755.0" y="156.0"/>
      <point x="1771.0" y="234.0"/>
      <point x="1771.0" y="274.0" type="qcurve" smooth="yes"/>
      <point x="1771.0" y="314.0"/>
      <point x="1755.0" y="392.0"/>
      <point x="1740.0" y="428.0" type="qcurve" smooth="yes"/>
      <point x="1725.0" y="463.0"/>
      <point x="1682.0" y="527.0"/>
    </contour>
    <contour>
      <point x="1615.0" y="1640.0" type="line"/>
      <point x="182.0" y="-28.0" type="line"/>
      <point x="278.0" y="-125.0" type="line"/>
      <point x="1709" y="1564" type="line"/>
    </contour>
    <contour>
      <point x="305" y="1404" type="qcurve" smooth="yes"/>
      <point x="343" y="1442"/>
      <point x="442" y="1483"/>
      <point x="495" y="1483" type="qcurve" smooth="yes"/>
      <point x="549" y="1483"/>
      <point x="648" y="1442"/>
      <point x="686" y="1404" type="qcurve" smooth="yes"/>
      <point x="724" y="1366"/>
      <point x="764" y="1267"/>
      <point x="764" y="1213" type="qcurve" smooth="yes"/>
      <point x="764" y="1160"/>
      <point x="724" y="1061"/>
      <point x="686" y="1023" type="qcurve" smooth="yes"/>
      <point x="648" y="985"/>
      <point x="549" y="944"/>
      <point x="495" y="944" type="qcurve" smooth="yes"/>
      <point x="442" y="944"/>
      <point x="343" y="985"/>
      <point x="305" y="1023" type="qcurve" smooth="yes"/>
      <point x="267" y="1061"/>
      <point x="226" y="1160"/>
      <point x="226" y="1213" type="qcurve" smooth="yes"/>
      <point x="226" y="1267"/>
      <point x="267" y="1366"/>
    </contour>
    <contour>
      <point x="1564.0" y="83.0" type="qcurve" smooth="yes"/>
      <point x="1526.0" y="45.0"/>
      <point x="1428.0" y="5.0"/>
      <point x="1374.0" y="5.0" type="qcurve" smooth="yes"/>
      <point x="1320.0" y="5.0"/>
      <point x="1221.0" y="45.0"/>
      <point x="1184.0" y="83.0" type="qcurve" smooth="yes"/>
      <point x="1146.0" y="121.0"/>
      <point x="1105.0" y="220.0"/>
      <point x="1105.0" y="274.0" type="qcurve" smooth="yes"/>
      <point x="1105.0" y="327.0"/>
      <point x="1146.0" y="426.0"/>
      <point x="1184.0" y="464.0" type="qcurve" smooth="yes"/>
      <point x="1221.0" y="502.0"/>
      <point x="1320.0" y="543.0"/>
      <point x="1374.0" y="543.0" type="qcurve" smooth="yes"/>
      <point x="1428.0" y="543.0"/>
      <point x="1526.0" y="502.0"/>
      <point x="1564.0" y="464.0" type="qcurve" smooth="yes"/>
      <point x="1602.0" y="426.0"/>
      <point x="1643.0" y="327.0"/>
      <point x="1643.0" y="274.0" type="qcurve" smooth="yes"/>
      <point x="1643.0" y="220.0"/>
      <point x="1602.0" y="121.0"/>
    </contour>
    <contour>
      <point x="215" y="933" type="qcurve" smooth="yes"/>
      <point x="242" y="906"/>
      <point x="305" y="863"/>
      <point x="341" y="848" type="qcurve" smooth="yes"/>
      <point x="377" y="832"/>
      <point x="455" y="817"/>
      <point x="495" y="817" type="qcurve" smooth="yes"/>
      <point x="535" y="817"/>
      <point x="613" y="832"/>
      <point x="650" y="848" type="qcurve" smooth="yes"/>
      <point x="685" y="863"/>
      <point x="749" y="906"/>
      <point x="776" y="933" type="qcurve" smooth="yes"/>
      <point x="803" y="960"/>
      <point x="846" y="1024"/>
      <point x="861" y="1059" type="qcurve" smooth="yes"/>
      <point x="876" y="1095"/>
      <point x="892" y="1173"/>
      <point x="892" y="1213" type="qcurve" smooth="yes"/>
      <point x="892" y="1253"/>
      <point x="876" y="1331"/>
      <point x="861" y="1368" type="qcurve" smooth="yes"/>
      <point x="846" y="1403"/>
      <point x="803" y="1467"/>
      <point x="776" y="1494" type="qcurve" smooth="yes"/>
      <point x="749" y="1521"/>
      <point x="685" y="1564"/>
      <point x="650" y="1579" type="qcurve" smooth="yes"/>
      <point x="613" y="1595"/>
      <point x="535" y="1610"/>
      <point x="495" y="1610" type="qcurve" smooth="yes"/>
      <point x="455" y="1610"/>
      <point x="377" y="1595"/>
      <point x="341" y="1579" type="qcurve" smooth="yes"/>
      <point x="305" y="1564"/>
      <point x="242" y="1521"/>
      <point x="215" y="1494" type="qcurve" smooth="yes"/>
      <point x="187" y="1467"/>
      <point x="145" y="1403"/>
      <point x="130" y="1368" type="qcurve" smooth="yes"/>
      <point x="114" y="1331"/>
      <point x="98" y="1253"/>
      <point x="98" y="1213" type="qcurve" smooth="yes"/>
      <point x="98" y="1173"/>
      <point x="114" y="1095"/>
      <point x="130" y="1059" type="qcurve" smooth="yes"/>
      <point x="145" y="1024"/>
      <point x="187" y="960"/>
    </contour>
  </outline>
</glyph>
<glyph name="ampersand" format="1">
  <advance width="1362"/>
  <unicode hex="0026"/>
  <outline>
    <contour>
      <point x="510.0" y="796.0" type="line"/>
      <point x="480.0" y="782.0"/>
      <point x="424.0" y="746.0"/>
      <point x="399.0" y="726.0" type="qcurve" smooth="yes"/>
      <point x="374.0" y="705.0"/>
      <point x="330.0" y="659.0"/>
      <point x="312.0" y="634.0" type="qcurve" smooth="yes"/>
      <point x="293.0" y="609.0"/>
      <point x="264.0" y="555.0"/>
      <point x="253.0" y="526.0" type="qcurve" smooth="yes"/>
      <point x="242.0" y="497.0"/>
      <point x="231.0" y="437.0"/>
      <point x="231.0" y="407.0" type="qcurve" smooth="yes"/>
      <point x="231.0" y="369.0"/>
      <point x="243.0" y="301.0"/>
      <point x="256.0" y="271.0" type="qcurve" smooth="yes"/>
      <point x="268.0" y="241.0"/>
      <point x="302.0" y="190.0"/>
      <point x="323.0" y="169.0" type="qcurve" smooth="yes"/>
      <point x="345.0" y="148.0"/>
      <point x="396.0" y="115.0"/>
      <point x="425.0" y="104.0" type="qcurve" smooth="yes"/>
      <point x="454.0" y="92.0"/>
      <point x="519.0" y="81.0"/>
      <point x="553.0" y="81.0" type="qcurve" smooth="yes"/>
      <point x="611.0" y="81.0"/>
      <point x="713.0" y="109.0"/>
      <point x="757.0" y="136.0" type="qcurve" smooth="yes"/>
      <point x="802.0" y="164.0"/>
      <point x="882.0" y="238.0"/>
      <point x="918.0" y="283.0" type="qcurve"/>
    </contour>
    <contour>
      <point x="767.0" y="1141.0" type="qcurve" smooth="yes"/>
      <point x="776.0" y="1162.0"/>
      <point x="783.0" y="1207.0"/>
      <point x="782.0" y="1231.0" type="qcurve" smooth="yes"/>
      <point x="780.0" y="1255.0"/>
      <point x="767.0" y="1298.0"/>
      <point x="756.0" y="1317.0" type="qcurve" smooth="yes"/>
      <point x="744.0" y="1337.0"/>
      <point x="713.0" y="1369.0"/>
      <point x="693.0" y="1381.0" type="qcurve" smooth="yes"/>
      <point x="673.0" y="1394.0"/>
      <point x="625.0" y="1407.0"/>
      <point x="598.0" y="1407.0" type="qcurve" smooth="yes"/>
      <point x="579.0" y="1407.0"/>
      <point x="543.0" y="1400.0"/>
      <point x="526.0" y="1394.0" type="qcurve" smooth="yes"/>
      <point x="509.0" y="1388.0"/>
      <point x="479.0" y="1370.0"/>
      <point x="465.0" y="1358.0" type="qcurve" smooth="yes"/>
      <point x="452.0" y="1347.0"/>
      <point x="430.0" y="1318.0"/>
      <point x="422.0" y="1301.0" type="qcurve" smooth="yes"/>
      <point x="414.0" y="1285.0"/>
      <point x="406.0" y="1247.0"/>
      <point x="406.0" y="1226.0" type="qcurve" smooth="yes"/>
      <point x="406.0" y="1209.0"/>
      <point x="414.0" y="1172.0"/>
      <point x="422.0" y="1152.0" type="qcurve" smooth="yes"/>
      <point x="430.0" y="1132.0"/>
      <point x="450.0" y="1093.0"/>
      <point x="461.0" y="1074.0" type="qcurve" smooth="yes"/>
      <point x="473.0" y="1055.0"/>
      <point x="497.0" y="1019.0"/>
      <point x="510.0" y="1002.0" type="qcurve" smooth="yes"/>
      <point x="523.0" y="984.0"/>
      <point x="546.0" y="954.0"/>
      <point x="556.0" y="942.0" type="qcurve"/>
      <point x="586.0" y="960.0"/>
      <point x="646.0" y="1002.0"/>
      <point x="676.0" y="1025.0" type="qcurve" smooth="yes"/>
      <point x="706.0" y="1047.0"/>
      <point x="752.0" y="1106.0"/>
    </contour>
    <contour>
      <point x="986.0" y="397.0" type="line"/>
      <point x="1005.0" y="431.0"/>
      <point x="1031.0" y="502.0"/>
      <point x="1036.0" y="539.0" type="qcurve" smooth="yes"/>
      <point x="1041.0" y="577.0"/>
      <point x="1059.0" y="653.0"/>
      <point x="1059.0" y="692.0" type="qcurve"/>
      <point x="1178.0" y="692.0" type="line"/>
      <point x="1176.0" y="641.0"/>
      <point x="1152.0" y="538.0"/>
      <point x="1141.0" y="487.0" type="qcurve" smooth="yes"/>
      <point x="1131.0" y="436.0"/>
      <point x="1092.0" y="340.0"/>
      <point x="1065.0" y="296.0" type="qcurve"/>
      <point x="1299.0" y="6.0" type="line"/>
      <point x="1137.0" y="6.0" type="line"/>
      <point x="998.0" y="185.0" type="line"/>
      <point x="951.0" y="126.0"/>
      <point x="850.0" y="42.0"/>
      <point x="796.0" y="17.0" type="qcurve" smooth="yes"/>
      <point x="743.0" y="-8.0"/>
      <point x="616.0" y="-34.0"/>
      <point x="545.0" y="-34.0" type="qcurve" smooth="yes"/>
      <point x="498.0" y="-34.0"/>
      <point x="410.0" y="-17.0"/>
      <point x="369.0" y="-1.0" type="qcurve" smooth="yes"/>
      <point x="329.0" y="15.0"/>
      <point x="257.0" y="61.0"/>
      <point x="227.0" y="90.0" type="qcurve" smooth="yes"/>
      <point x="196.0" y="120.0"/>
      <point x="148.0" y="191.0"/>
      <point x="131.0" y="232.0" type="qcurve" smooth="yes"/>
      <point x="114.0" y="274.0"/>
      <point x="96.0" y="366.0"/>
      <point x="96.0" y="417.0" type="qcurve" smooth="yes"/>
      <point x="96.0" y="458.0"/>
      <point x="110.0" y="537.0"/>
      <point x="124.0" y="572.0" type="qcurve" smooth="yes"/>
      <point x="138.0" y="608.0"/>
      <point x="176.0" y="673.0"/>
      <point x="199.0" y="703.0" type="qcurve" smooth="yes"/>
      <point x="222.0" y="732.0"/>
      <point x="277.0" y="784.0"/>
      <point x="308.0" y="807.0" type="qcurve" smooth="yes"/>
      <point x="338.0" y="829.0"/>
      <point x="404.0" y="869.0"/>
      <point x="439.0" y="886.0" type="qcurve"/>
      <point x="410.0" y="921.0"/>
      <point x="357.0" y="999.0"/>
      <point x="334.0" y="1040.0" type="qcurve" smooth="yes"/>
      <point x="310.0" y="1082.0"/>
      <point x="286.0" y="1174.0"/>
      <point x="286.0" y="1224.0" type="qcurve" smooth="yes"/>
      <point x="286.0" y="1260.0"/>
      <point x="299.0" y="1324.0"/>
      <point x="312.0" y="1352.0" type="qcurve" smooth="yes"/>
      <point x="325.0" y="1379.0"/>
      <point x="360.0" y="1426.0"/>
      <point x="381.0" y="1445.0" type="qcurve" smooth="yes"/>
      <point x="403.0" y="1464.0"/>
      <point x="455.0" y="1493.0"/>
      <point x="484.0" y="1502.0" type="qcurve" smooth="yes"/>
      <point x="513.0" y="1512.0"/>
      <point x="576.0" y="1521.0"/>
      <point x="608.0" y="1521.0" type="qcurve" smooth="yes"/>
      <point x="641.0" y="1521.0"/>
      <point x="702.0" y="1509.0"/>
      <point x="730.0" y="1498.0" type="qcurve" smooth="yes"/>
      <point x="757.0" y="1486.0"/>
      <point x="805.0" y="1455.0"/>
      <point x="825.0" y="1435.0" type="qcurve" smooth="yes"/>
      <point x="845.0" y="1415.0"/>
      <point x="876.0" y="1368.0"/>
      <point x="887.0" y="1341.0" type="qcurve" smooth="yes"/>
      <point x="898.0" y="1314.0"/>
      <point x="909.0" y="1258.0"/>
      <point x="909.0" y="1229.0" type="qcurve" smooth="yes"/>
      <point x="909.0" y="1191.0"/>
      <point x="897.0" y="1125.0"/>
      <point x="886.0" y="1097.0" type="qcurve" smooth="yes"/>
      <point x="874.0" y="1069.0"/>
      <point x="843.0" y="1020.0"/>
      <point x="824.0" y="998.0" type="qcurve" smooth="yes"/>
      <point x="805.0" y="977.0"/>
      <point x="759.0" y="937.0"/>
      <point x="734.0" y="919.0" type="qcurve" smooth="yes"/>
      <point x="708.0" y="902.0"/>
      <point x="654.0" y="866.0"/>
      <point x="626.0" y="848.0" type="qcurve"/>
    </contour>
  </outline>
</glyph>
<glyph name="quotesingle" format="1">
  <advance width="479"/>
  <unicode hex="0027"/>
  <outline>
    <contour>
      <point x="260" y="1004" type="line"/>
      <point x="128" y="1004" type="line"/>
      <point x="234" y="1495" type="line"/>
      <point x="368" y="1495" type="line"/>
    </contour>
  </outline>
</glyph>
<glyph name="parenleft" format="1">
  <advance width="650"/>
  <unicode hex="0028"/>
  <outline>
    <contour>
      <point x="561" y="-46" type="qcurve"/>
      <point x="461" y="-151" type="line"/>
      <point x="296" y="-5"/>
      <point x="106" y="409"/>
      <point x="106" y="748" type="qcurve" smooth="yes"/>
      <point x="106" y="1087"/>
      <point x="316" y="1537"/>
      <point x="476" y="1640" type="qcurve"/>
      <point x="561" y="1522" type="line"/>
      <point x="420" y="1405"/>
      <point x="255" y="1020"/>
      <point x="255" y="748" type="qcurve" smooth="yes"/>
      <point x="255" y="475"/>
      <point x="420" y="71"/>
    </contour>
  </outline>
</glyph>
<glyph name="parenright" format="1">
  <advance width="600"/>
  <unicode hex="0029"/>
  <outline>
    <contour>
      <point x="139" y="-151" type="qcurve"/>
      <point x="39" y="-46" type="line"/>
      <point x="180" y="71"/>
      <point x="342.0" y="475.0"/>
      <point x="342.0" y="748.0" type="qcurve" smooth="yes"/>
      <point x="342.0" y="1020.0"/>
      <point x="180" y="1405"/>
      <point x="39" y="1522" type="qcurve"/>
      <point x="125" y="1640" type="line"/>
      <point x="269" y="1528"/>
      <point x="488.0" y="1089.0"/>
      <point x="490.0" y="748.0" type="qcurve" smooth="yes"/>
      <point x="492.0" y="429.0"/>
      <point x="242" y="-80"/>
    </contour>
  </outline>
</glyph>
<glyph name="asterisk" format="1">
  <advance width="1102"/>
  <unicode hex="002A"/>
  <outline>
    <contour>
      <point x="623" y="1575" type="line"/>
      <point x="623" y="1232" type="line"/>
      <point x="956" y="1331" type="line"/>
      <point x="1002" y="1195" type="line"/>
      <point x="678" y="1092" type="line"/>
      <point x="863" y="808" type="line"/>
      <point x="745" y="719" type="line"/>
      <point x="556" y="1015" type="line"/>
      <point x="356" y="719" type="line"/>
      <point x="231" y="806" type="line"/>
      <point x="432" y="1094" type="line" smooth="yes"/>
      <point x="107" y="1184" type="line"/>
      <point x="147" y="1328" type="line"/>
      <point x="481" y="1229" type="line"/>
      <point x="481" y="1575" type="line"/>
    </contour>
  </outline>
</glyph>
<glyph name="plus" format="1">
  <advance width="1196"/>
  <unicode hex="002B"/>
  <outline>
    <contour>
      <point x="664" y="813" type="line"/>
      <point x="1013" y="813" type="line"/>
      <point x="1013" y="682" type="line"/>
      <point x="664" y="682" type="line"/>
      <point x="664" y="328" type="line"/>
      <point x="530" y="328" type="line"/>
      <point x="530" y="682" type="line"/>
      <point x="181" y="682" type="line"/>
      <point x="181" y="813" type="line"/>
      <point x="530" y="813" type="line"/>
      <point x="530" y="1165" type="line"/>
      <point x="664" y="1165" type="line"/>
    </contour>
  </outline>
</glyph>
<glyph name="zero" format="1">
  <advance width="1369"/>
  <unicode hex="0030"/>
  <outline>
    <contour>
      <point x="145" y="760" type="qcurve" smooth="yes"/>
      <point x="145" y="1124"/>
      <point x="449" y="1524"/>
      <point x="697" y="1524" type="qcurve" smooth="yes"/>
      <point x="941.256981742" y="1524.0"/>
      <point x="1224.0" y="1094.61743962"/>
      <point x="1224" y="731" type="qcurve" smooth="yes"/>
      <point x="1224" y="367"/>
      <point x="952" y="-31"/>
      <point x="700" y="-31" type="qcurve" smooth="yes"/>
      <point x="450.273136573" y="-31.0"/>
      <point x="145.0" y="399.605822019"/>
    </contour>
    <contour>
      <point x="1062" y="733" type="qcurve" smooth="yes"/>
      <point x="1062.0" y="1041.0"/>
      <point x="867.0" y="1399.0"/>
      <point x="699" y="1399" type="qcurve" smooth="yes"/>
      <point x="525" y="1399"/>
      <point x="307" y="1065"/>
      <point x="307" y="758" type="qcurve" smooth="yes"/>
      <point x="307.0" y="454.749089857"/>
      <point x="528.574073785" y="94.0"/>
      <point x="701" y="94" type="qcurve" smooth="yes"/>
      <point x="875" y="94"/>
      <point x="1062" y="426"/>
    </contour>
  </outline>
</glyph>
<glyph name="one" format="1">
  <advance width="967"/>
  <unicode hex="0031"/>
  <outline>
    <contour>
      <point x="909.0" y="0.0" type="line"/>
      <point x="125.0" y="0.0" type="line"/>
      <point x="125.0" y="109.0" type="line"/>
      <point x="434.0" y="109.0" type="line"/>
      <point x="434" y="1322" type="line"/>
      <point x="115" y="1211" type="line"/>
      <point x="78" y="1354" type="line"/>
      <point x="477.0" y="1495.0" type="line"/>
      <point x="598.0" y="1495.0" type="line"/>
      <point x="598.0" y="125.0" type="line"/>
      <point x="909.0" y="125.0" type="line"/>
    </contour>
  </outline>
</glyph>
<glyph name="two" format="1">
  <advance width="1258"/>
  <unicode hex="0032"/>
  <outline>
    <contour>
      <point x="985" y="136" type="line"/>
      <point x="985" y="272" type="line"/>
      <point x="1121" y="272" type="line"/>
      <point x="1121" y="0" type="line"/>
      <point x="209" y="0" type="line" smooth="yes"/>
      <point x="151" y="0"/>
      <point x="126" y="111"/>
      <point x="192" y="177" type="qcurve" smooth="yes"/>
      <point x="221" y="206"/>
      <point x="723" y="729"/>
      <point x="723" y="729" type="qcurve"/>
      <point x="754" y="761"/>
      <point x="805" y="818"/>
      <point x="825" y="843" type="qcurve" smooth="yes"/>
      <point x="845" y="868"/>
      <point x="879" y="917"/>
      <point x="892" y="941" type="qcurve" smooth="yes"/>
      <point x="905" y="965"/>
      <point x="924" y="1013"/>
      <point x="929" y="1036" type="qcurve" smooth="yes"/>
      <point x="935" y="1060"/>
      <point x="940" y="1104"/>
      <point x="940" y="1133" type="qcurve" smooth="yes"/>
      <point x="940" y="1188"/>
      <point x="902" y="1280"/>
      <point x="864" y="1317" type="qcurve" smooth="yes"/>
      <point x="826" y="1354"/>
      <point x="699" y="1391"/>
      <point x="626" y="1391" type="qcurve" smooth="yes"/>
      <point x="556" y="1391"/>
      <point x="436" y="1350"/>
      <point x="394" y="1309" type="qcurve" smooth="yes"/>
      <point x="366" y="1282"/>
      <point x="319" y="1209"/>
      <point x="310" y="1166" type="qcurve"/>
      <point x="310" y="1085" type="line"/>
      <point x="158" y="1085" type="line"/>
      <point x="158" y="1198" type="line"/>
      <point x="161" y="1248"/>
      <point x="236" y="1364"/>
      <point x="279" y="1403" type="qcurve" smooth="yes"/>
      <point x="339" y="1459"/>
      <point x="518" y="1516"/>
      <point x="628" y="1516" type="qcurve" smooth="yes"/>
      <point x="739" y="1516"/>
      <point x="925" y="1464"/>
      <point x="985" y="1412" type="qcurve" smooth="yes"/>
      <point x="1044" y="1360"/>
      <point x="1104" y="1213"/>
      <point x="1104" y="1120" type="qcurve" smooth="yes"/>
      <point x="1104" y="1089"/>
      <point x="1095" y="1036"/>
      <point x="1087" y="1007" type="qcurve" smooth="yes"/>
      <point x="1078" y="978"/>
      <point x="1053" y="919"/>
      <point x="1036" y="890" type="qcurve" smooth="yes"/>
      <point x="1019" y="861"/>
      <point x="977" y="800"/>
      <point x="952" y="770" type="qcurve" smooth="yes"/>
      <point x="927" y="739"/>
      <point x="868" y="672"/>
      <point x="834" y="635" type="qcurve" smooth="yes"/>
      <point x="374" y="136" type="line"/>
    </contour>
  </outline>
</glyph>
<glyph name="three" format="1">
  <advance width="1227"/>
  <unicode hex="0033"/>
  <outline>
    <contour>
      <point x="1089" y="1408" type="line"/>
      <point x="1089" y="1526" type="line"/>
      <point x="308" y="1526" type="line" smooth="yes"/>
      <point x="238" y="1526"/>
      <point x="179" y="1463"/>
      <point x="179" y="1393" type="qcurve" smooth="yes"/>
      <point x="179" y="1239" type="line"/>
      <point x="321" y="1239" type="line"/>
      <point x="321" y="1389" type="line"/>
      <point x="893" y="1390" type="line"/>
      <point x="426" y="854" type="line"/>
      <point x="458" y="725" type="line"/>
      <point x="550" y="725" type="line" smooth="yes"/>
      <point x="649" y="725"/>
      <point x="798" y="690"/>
      <point x="847" y="654" type="qcurve" smooth="yes"/>
      <point x="896" y="619"/>
      <point x="934" y="472"/>
      <point x="934" y="396" type="qcurve" smooth="yes"/>
      <point x="934" y="325"/>
      <point x="881" y="212"/>
      <point x="835" y="172" type="qcurve" smooth="yes"/>
      <point x="788" y="132"/>
      <point x="660" y="91"/>
      <point x="579" y="91" type="qcurve" smooth="yes"/>
      <point x="499" y="91"/>
      <point x="397" y="133"/>
      <point x="335" y="176" type="qcurve" smooth="yes"/>
      <point x="298" y="201"/>
      <point x="234" y="287"/>
      <point x="234" y="287" type="qcurve"/>
      <point x="137" y="194" type="line"/>
      <point x="137" y="194"/>
      <point x="270" y="43"/>
      <point x="376" y="-1" type="qcurve" smooth="yes"/>
      <point x="419" y="-19"/>
      <point x="523" y="-32"/>
      <point x="581" y="-32" type="qcurve" smooth="yes"/>
      <point x="639" y="-32"/>
      <point x="745" y="-17"/>
      <point x="793" y="-3" type="qcurve" smooth="yes"/>
      <point x="840" y="11"/>
      <point x="920" y="54"/>
      <point x="953" y="81" type="qcurve" smooth="yes"/>
      <point x="985" y="108"/>
      <point x="1033" y="176"/>
      <point x="1051" y="216" type="qcurve" smooth="yes"/>
      <point x="1068" y="256"/>
      <point x="1090" y="348"/>
      <point x="1090" y="400" type="qcurve" smooth="yes"/>
      <point x="1090" y="431"/>
      <point x="1088" y="490"/>
      <point x="1083" y="520" type="qcurve" smooth="yes"/>
      <point x="1043" y="732"/>
      <point x="729" y="858"/>
      <point x="602" y="854" type="qcurve"/>
    </contour>
  </outline>
</glyph>
<glyph name="four" format="1">
  <advance width="1249"/>
  <unicode hex="0034"/>
  <outline>
    <contour>
      <point x="952" y="465" type="line"/>
      <point x="1133" y="465" type="line"/>
      <point x="1133" y="327" type="line"/>
      <point x="952" y="327" type="line"/>
      <point x="952" y="0" type="line"/>
      <point x="788" y="0" type="line"/>
      <point x="788" y="327" type="line"/>
      <point x="39" y="327" type="line"/>
      <point x="39" y="449" type="line"/>
      <point x="702" y="1495" type="line"/>
      <point x="952" y="1495" type="line"/>
    </contour>
    <contour>
      <point x="788" y="465" type="line"/>
      <point x="788" y="1350" type="line"/>
      <point x="219" y="465" type="line"/>
    </contour>
  </outline>
</glyph>
<glyph name="five" format="1">
  <advance width="1245"/>
  <unicode hex="0035"/>
  <outline>
    <contour>
      <point x="915" y="1358" type="line"/>
      <point x="406" y="1358" type="line"/>
      <point x="356" y="838" type="line"/>
      <point x="430" y="861" name="inserted"/>
      <point x="564" y="883"/>
      <point x="623" y="883" type="qcurve" smooth="yes"/>
      <point x="748" y="883"/>
      <point x="938" y="817"/>
      <point x="1002" y="756" type="qcurve" smooth="yes" name="inserted"/>
      <point x="1065" y="694"/>
      <point x="1128" y="524"/>
      <point x="1128" y="420" type="qcurve" smooth="yes"/>
      <point x="1128" y="209"/>
      <point x="862" y="-16"/>
      <point x="610" y="-16" type="qcurve" smooth="yes"/>
      <point x="506" y="-16"/>
      <point x="340" y="50"/>
      <point x="281" y="111" type="qcurve" smooth="yes" name="inserted"/>
      <point x="221" y="171"/>
      <point x="158" y="341"/>
      <point x="158" y="447" type="qcurve"/>
      <point x="303" y="447" type="line"/>
      <point x="303" y="294"/>
      <point x="467" y="109"/>
      <point x="627" y="109" type="qcurve" smooth="yes"/>
      <point x="786" y="109"/>
      <point x="967" y="270"/>
      <point x="967" y="438" type="qcurve" smooth="yes"/>
      <point x="967" y="524"/>
      <point x="907" y="649"/>
      <point x="855" y="690" type="qcurve" smooth="yes" name="inserted"/>
      <point x="803" y="731"/>
      <point x="669" y="765"/>
      <point x="587" y="765" type="qcurve" smooth="yes"/>
      <point x="503" y="765" name="inserted"/>
      <point x="364" y="716"/>
      <point x="280" y="688" type="qcurve"/>
      <point x="205" y="745" type="line"/>
      <point x="274" y="1495" type="line"/>
      <point x="1051" y="1495" type="line"/>
      <point x="1051" y="1222" type="line"/>
      <point x="915" y="1222" type="line"/>
    </contour>
  </outline>
</glyph>
<glyph name="six" format="1">
  <advance width="1288"/>
  <unicode hex="0036"/>
  <outline>
    <contour>
      <point x="701" y="1393" type="qcurve" smooth="yes"/>
      <point x="519" y="1393"/>
      <point x="309" y="1100"/>
      <point x="307" y="784" type="qcurve"/>
      <point x="397" y="855" name="inserted"/>
      <point x="591" y="935"/>
      <point x="694" y="935" type="qcurve" smooth="yes"/>
      <point x="795" y="935"/>
      <point x="960" y="858"/>
      <point x="1024" y="802" type="qcurve" smooth="yes" name="inserted"/>
      <point x="1087" y="746"/>
      <point x="1163" y="539"/>
      <point x="1163" y="430" type="qcurve" smooth="yes"/>
      <point x="1163" y="217"/>
      <point x="899" y="-29"/>
      <point x="653" y="-29" type="qcurve" smooth="yes"/>
      <point x="410" y="-29"/>
      <point x="147" y="350"/>
      <point x="147" y="717" type="qcurve" smooth="yes"/>
      <point x="147" y="897"/>
      <point x="217" y="1196"/>
      <point x="284.5" y="1302.5" type="qcurve" smooth="yes" name="inserted"/>
      <point x="352" y="1409"/>
      <point x="551" y="1534"/>
      <point x="682" y="1534" type="qcurve" smooth="yes"/>
      <point x="897" y="1534"/>
      <point x="1124" y="1325"/>
      <point x="1143" y="1151" type="qcurve"/>
      <point x="988" y="1118" type="line"/>
      <point x="974" y="1259" name="inserted"/>
      <point x="837" y="1393"/>
    </contour>
    <contour>
      <point x="682" y="791" type="qcurve" smooth="yes"/>
      <point x="582" y="791" name="inserted"/>
      <point x="393" y="692"/>
      <point x="305" y="620" type="qcurve"/>
      <point x="315" y="376"/>
      <point x="496" y="94"/>
      <point x="659" y="94" type="qcurve" smooth="yes"/>
      <point x="821" y="94"/>
      <point x="1008" y="274"/>
      <point x="1008" y="432" type="qcurve" smooth="yes"/>
      <point x="1008" y="592"/>
      <point x="819" y="791"/>
    </contour>
  </outline>
</glyph>
<glyph name="seven" format="1">
  <advance width="1081"/>
  <unicode hex="0037"/>
  <outline>
    <contour>
      <point x="985" y="1495" type="line"/>
      <point x="985" y="1374" type="line"/>
      <point x="379" y="0" type="line"/>
      <point x="217" y="0" type="line"/>
      <point x="823" y="1370" type="line"/>
      <point x="84" y="1370" type="line"/>
      <point x="74" y="1495" type="line"/>
    </contour>
  </outline>
</glyph>
<glyph name="eight" format="1">
  <advance width="1305"/>
  <unicode hex="0038"/>
  <outline>
    <contour>
      <point x="1124" y="1135" type="qcurve" smooth="yes"/>
      <point x="1124" y="1010"/>
      <point x="969" y="801"/>
      <point x="813" y="745" type="qcurve"/>
      <point x="893" y="715"/>
      <point x="1018" y="643"/>
      <point x="1061.0" y="599.0" type="qcurve" smooth="yes" name="inserted"/>
      <point x="1104" y="555"/>
      <point x="1149" y="442"/>
      <point x="1149" y="369" type="qcurve" smooth="yes"/>
      <point x="1149" y="268"/>
      <point x="1075" y="119"/>
      <point x="1009.5" y="68.5" type="qcurve" smooth="yes" name="inserted"/>
      <point x="944" y="18"/>
      <point x="762" y="-31"/>
      <point x="655" y="-31" type="qcurve" smooth="yes"/>
      <point x="549" y="-31"/>
      <point x="367" y="18"/>
      <point x="299.0" y="67.5" type="qcurve" smooth="yes" name="inserted"/>
      <point x="231" y="117"/>
      <point x="156" y="266"/>
      <point x="156" y="369" type="qcurve" smooth="yes"/>
      <point x="156.0" y="512.0" name="inserted"/>
      <point x="306.5" y="709.5"/>
      <point x="457" y="764" type="qcurve"/>
      <point x="328" y="827"/>
      <point x="184" y="999"/>
      <point x="184" y="1135" type="qcurve" smooth="yes"/>
      <point x="184" y="1225"/>
      <point x="254" y="1370"/>
      <point x="316.5" y="1420.0" type="qcurve" smooth="yes" name="inserted"/>
      <point x="379" y="1470"/>
      <point x="553" y="1524"/>
      <point x="655" y="1524" type="qcurve" smooth="yes"/>
      <point x="760" y="1524"/>
      <point x="932" y="1468"/>
      <point x="993.5" y="1418.0" type="qcurve" smooth="yes" name="inserted"/>
      <point x="1055" y="1368"/>
      <point x="1124" y="1223"/>
    </contour>
    <contour>
      <point x="987" y="381" type="qcurve" smooth="yes"/>
      <point x="987" y="436"/>
      <point x="952" y="518"/>
      <point x="906.0" y="555.0" type="qcurve" smooth="yes" name="inserted"/>
      <point x="860" y="592"/>
      <point x="702" y="666"/>
      <point x="580" y="711" type="qcurve"/>
      <point x="451" y="676"/>
      <point x="317" y="502"/>
      <point x="317" y="369" type="qcurve" smooth="yes"/>
      <point x="317" y="236"/>
      <point x="494" y="86"/>
      <point x="653" y="86" type="qcurve" smooth="yes"/>
      <point x="813" y="86"/>
      <point x="987" y="233"/>
    </contour>
    <contour>
      <point x="668" y="799" type="qcurve"/>
      <point x="799" y="836"/>
      <point x="963" y="1010"/>
      <point x="963" y="1126" type="qcurve" smooth="yes"/>
      <point x="963" y="1182"/>
      <point x="922" y="1284"/>
      <point x="883.0" y="1322.0" type="qcurve" smooth="yes" name="inserted"/>
      <point x="844" y="1360"/>
      <point x="729" y="1407"/>
      <point x="653" y="1407" type="qcurve" smooth="yes"/>
      <point x="504" y="1407"/>
      <point x="346" y="1251"/>
      <point x="346" y="1122" type="qcurve" smooth="yes"/>
      <point x="346" y="1061"/>
      <point x="387" y="967"/>
      <point x="428.0" y="929.0" type="qcurve" smooth="yes" name="inserted"/>
      <point x="469" y="891"/>
      <point x="588" y="829"/>
    </contour>
  </outline>
</glyph>
<glyph name="nine" format="1">
  <advance width="1282"/>
  <unicode hex="0039"/>
  <outline>
    <contour>
      <point x="586" y="-16" type="qcurve" smooth="yes"/>
      <point x="445" y="-21"/>
      <point x="252" y="26"/>
      <point x="152" y="109" type="qcurve"/>
      <point x="224" y="240" type="line"/>
      <point x="350" y="160"/>
      <point x="440" y="127"/>
      <point x="590" y="127" type="qcurve" smooth="yes"/>
      <point x="776" y="127"/>
      <point x="981" y="420"/>
      <point x="987" y="750" type="qcurve"/>
      <point x="892" y="676" name="inserted"/>
      <point x="688.0" y="606.0"/>
      <point x="584.0" y="606.0" type="qcurve" smooth="yes"/>
      <point x="481.0" y="606.0"/>
      <point x="313.0" y="674.0"/>
      <point x="253.0" y="729.0" type="qcurve" smooth="yes" name="inserted"/>
      <point x="193.0" y="784.0"/>
      <point x="123" y="954"/>
      <point x="123" y="1063" type="qcurve" smooth="yes"/>
      <point x="123" y="1280"/>
      <point x="385" y="1516"/>
      <point x="627" y="1516" type="qcurve" smooth="yes"/>
      <point x="868" y="1516"/>
      <point x="1137.0" y="1161.0"/>
      <point x="1137.0" y="821.0" type="qcurve" smooth="yes"/>
      <point x="1137.0" y="416.0"/>
      <point x="852" y="-7"/>
    </contour>
    <contour>
      <point x="594.0" y="731.0" type="qcurve" smooth="yes"/>
      <point x="695.0" y="731.0" name="inserted"/>
      <point x="887" y="834"/>
      <point x="979" y="908" type="qcurve"/>
      <point x="975" y="1156"/>
      <point x="786" y="1389"/>
      <point x="623" y="1389" type="qcurve" smooth="yes"/>
      <point x="461" y="1389"/>
      <point x="285" y="1220"/>
      <point x="285" y="1061" type="qcurve" smooth="yes"/>
      <point x="285" y="901"/>
      <point x="459.0" y="731.0"/>
    </contour>
  </outline>
</glyph>
<glyph name="at" format="1">
  <advance width="2191"/>
  <unicode hex="0040"/>
  <outline>
    <contour>
      <point x="2015" y="776" type="qcurve" smooth="yes"/>
      <point x="2015" y="670"/>
      <point x="1960" y="471"/>
      <point x="1904.5" y="394.0" type="qcurve" smooth="yes" name="inserted"/>
      <point x="1849" y="317"/>
      <point x="1679" y="225"/>
      <point x="1565" y="225" type="qcurve" smooth="yes"/>
      <point x="1458.5" y="225.0" name="inserted"/>
      <point x="1320.0" y="323.5"/>
      <point x="1288" y="422" type="qcurve"/>
      <point x="1232.0" y="338.0" name="inserted"/>
      <point x="1080.5" y="254.0"/>
      <point x="985" y="254" type="qcurve" smooth="yes"/>
      <point x="905" y="254"/>
      <point x="788" y="324"/>
      <point x="748.5" y="383.0" type="qcurve" smooth="yes" name="inserted"/>
      <point x="709" y="442"/>
      <point x="670" y="602"/>
      <point x="670" y="692" type="qcurve" smooth="yes"/>
      <point x="670" y="791"/>
      <point x="713" y="973"/>
      <point x="759.0" y="1043.5" type="qcurve" smooth="yes" name="inserted"/>
      <point x="805" y="1114"/>
      <point x="952" y="1200"/>
      <point x="1055" y="1200" type="qcurve" smooth="yes"/>
      <point x="1114" y="1200"/>
      <point x="1241" y="1165"/>
      <point x="1307" y="1126" type="qcurve"/>
      <point x="1380" y="1200" type="line"/>
      <point x="1409" y="1200"/>
      <point x="1432" y="1174"/>
      <point x="1432" y="1145" type="qcurve"/>
      <point x="1403" y="641" type="line"/>
      <point x="1401" y="631"/>
      <point x="1401" y="610"/>
      <point x="1401" y="600" type="qcurve" smooth="yes"/>
      <point x="1401" y="469"/>
      <point x="1499" y="336"/>
      <point x="1591" y="336" type="qcurve" smooth="yes"/>
      <point x="1659" y="336"/>
      <point x="1761" y="399"/>
      <point x="1796.0" y="456.5" type="qcurve" smooth="yes" name="inserted"/>
      <point x="1831" y="514"/>
      <point x="1868" y="678"/>
      <point x="1868" y="776" type="qcurve" smooth="yes"/>
      <point x="1868" y="924"/>
      <point x="1780" y="1192"/>
      <point x="1689.5" y="1292.5" type="qcurve" smooth="yes" name="inserted"/>
      <point x="1599" y="1393"/>
      <point x="1317" y="1511"/>
      <point x="1124" y="1511" type="qcurve" smooth="yes"/>
      <point x="934" y="1511"/>
      <point x="637" y="1386"/>
      <point x="533.5" y="1274.5" type="qcurve" smooth="yes" name="inserted"/>
      <point x="430" y="1163"/>
      <point x="324" y="858"/>
      <point x="324" y="678" type="qcurve" smooth="yes"/>
      <point x="324" y="512"/>
      <point x="418" y="240"/>
      <point x="510.0" y="142.5" type="qcurve" smooth="yes" name="inserted"/>
      <point x="602" y="45"/>
      <point x="874" y="-63"/>
      <point x="1053" y="-63" type="qcurve" smooth="yes"/>
      <point x="1216.5" y="-63.0" name="inserted"/>
      <point x="1489.5" y="26.0"/>
      <point x="1599" y="115" type="qcurve"/>
      <point x="1677" y="12" type="line"/>
      <point x="1553.5" y="-88.0" name="inserted"/>
      <point x="1238.5" y="-188.0"/>
      <point x="1047" y="-188" type="qcurve" smooth="yes"/>
      <point x="823" y="-188"/>
      <point x="494" y="-51"/>
      <point x="386.5" y="66.5" type="qcurve" smooth="yes" name="inserted"/>
      <point x="279" y="184"/>
      <point x="174" y="496"/>
      <point x="174" y="672" type="qcurve" smooth="yes"/>
      <point x="174" y="868"/>
      <point x="295" y="1219"/>
      <point x="416.0" y="1351.0" type="qcurve" smooth="yes" name="inserted"/>
      <point x="537" y="1483"/>
      <point x="895" y="1636"/>
      <point x="1133" y="1636" type="qcurve" smooth="yes"/>
      <point x="1364" y="1636"/>
      <point x="1698" y="1499"/>
      <point x="1805.5" y="1381.5" type="qcurve" smooth="yes" name="inserted"/>
      <point x="1913" y="1264"/>
      <point x="2015" y="950"/>
    </contour>
    <contour>
      <point x="1083" y="1090" type="qcurve" smooth="yes"/>
      <point x="950.0" y="1090.0" name="inserted"/>
      <point x="817.0" y="889.0"/>
      <point x="817" y="688" type="qcurve" smooth="yes"/>
      <point x="817" y="621"/>
      <point x="840" y="502"/>
      <point x="865.5" y="458.0" type="qcurve" smooth="yes" name="inserted"/>
      <point x="891" y="414"/>
      <point x="975" y="365"/>
      <point x="1036" y="365" type="qcurve" smooth="yes"/>
      <point x="1096.5" y="365.0" name="inserted"/>
      <point x="1206.0" y="429.5"/>
      <point x="1255" y="494" type="qcurve"/>
      <point x="1282" y="1036" type="line"/>
      <point x="1235.0" y="1063.0" name="inserted"/>
      <point x="1135.5" y="1090.0"/>
    </contour>
  </outline>
</glyph>
<glyph name="A" format="1">
  <advance width="1297"/>
  <unicode hex="0041"/>
  <outline>
    <contour>
      <point x="145" y="0" type="qcurve" smooth="yes"/>
      <point x="-19" y="0" type="line"/>
      <point x="-19" y="137" type="line"/>
      <point x="83" y="137" type="line"/>
      <point x="536" y="1495" type="line"/>
      <point x="753" y="1495" type="line"/>
      <point x="1208" y="136" type="line"/>
      <point x="1306" y="136" type="line"/>
      <point x="1306" y="0" type="line"/>
      <point x="1146" y="0" type="line" smooth="yes"/>
      <point x="1117.5" y="0.0" name="inserted"/>
      <point x="1080.5" y="26.5"/>
      <point x="1072" y="53" type="qcurve" smooth="yes"/>
      <point x="939" y="459" type="line"/>
      <point x="352" y="459" type="line"/>
      <point x="218" y="53" type="line" smooth="yes"/>
      <point x="209.0" y="26.5" name="inserted"/>
      <point x="173" y="0"/>
    </contour>
    <contour>
      <point x="651" y="1341" type="line"/>
      <point x="640" y="1341" type="line"/>
      <point x="393" y="586" type="line"/>
      <point x="898" y="586" type="line"/>
    </contour>
  </outline>
</glyph>
<glyph name="B" format="1">
  <advance width="1319"/>
  <unicode hex="0042"/>
  <outline>
    <contour>
      <point x="150" y="1495" type="line"/>
      <point x="686" y="1495" type="line" smooth="yes"/>
      <point x="909" y="1495"/>
      <point x="1155" y="1284"/>
      <point x="1155" y="1104" type="qcurve" smooth="yes"/>
      <point x="1155" y="973"/>
      <point x="1020" y="793"/>
      <point x="897" y="768" type="qcurve"/>
      <point x="1051" y="748"/>
      <point x="1221" y="553"/>
      <point x="1221" y="410" type="qcurve" smooth="yes"/>
      <point x="1221" y="205" name="inserted"/>
      <point x="990" y="0"/>
      <point x="758" y="0" type="qcurve" smooth="yes"/>
      <point x="276" y="0" type="line"/>
      <point x="276" y="0"/>
      <point x="276" y="1372"/>
      <point x="276" y="1372" type="qcurve"/>
      <point x="150" y="1371" type="line"/>
    </contour>
    <contour>
      <point x="442" y="1373" type="line"/>
      <point x="442" y="137" type="line"/>
      <point x="754" y="137" type="line" smooth="yes"/>
      <point x="907" y="137" name="inserted"/>
      <point x="1059" y="262"/>
      <point x="1059" y="410" type="qcurve" smooth="yes"/>
      <point x="1059" y="551"/>
      <point x="883" y="697"/>
      <point x="717" y="697" type="qcurve" smooth="yes"/>
      <point x="437" y="697" type="line"/>
      <point x="437" y="841" type="line"/>
      <point x="717" y="842" type="line" smooth="yes"/>
      <point x="857" y="842" name="inserted"/>
      <point x="993" y="962"/>
      <point x="993" y="1104" type="qcurve" smooth="yes"/>
      <point x="993" y="1233"/>
      <point x="831" y="1373"/>
      <point x="676" y="1373" type="qcurve" smooth="yes"/>
    </contour>
  </outline>
</glyph>
<glyph name="C" format="1">
  <advance width="1272"/>
  <unicode hex="0043"/>
  <outline>
    <contour>
      <point x="696.0" y="1399.0" type="qcurve" smooth="yes"/>
      <point x="575.0" y="1399.0"/>
      <point x="394.0" y="1285.0"/>
      <point x="348.0" y="1196.0" type="qcurve" smooth="yes" name="inserted"/>
      <point x="302.0" y="1107.0"/>
      <point x="240.0" y="873.0"/>
      <point x="240.0" y="762.0" type="qcurve" smooth="yes"/>
      <point x="240.0" y="647.0"/>
      <point x="300.0" y="417.0"/>
      <point x="346.0" y="319.0" type="qcurve" smooth="yes" name="inserted"/>
      <point x="392.0" y="220.0"/>
      <point x="573.0" y="94.0"/>
      <point x="696.0" y="94.0" type="qcurve" smooth="yes"/>
      <point x="842.5" y="94.0" name="inserted"/>
      <point x="1013" y="248"/>
      <point x="1050" y="452" type="qcurve"/>
      <point x="1191.0" y="419.0" type="line"/>
      <point x="1138.0" y="169.0" name="inserted"/>
      <point x="896.0" y="-31.0"/>
      <point x="694.0" y="-31.0" type="qcurve" smooth="yes"/>
      <point x="530.0" y="-27.0"/>
      <point x="287.0" y="110.0"/>
      <point x="222.0" y="222.0" type="qcurve" smooth="yes" name="inserted"/>
      <point x="156.0" y="333.0"/>
      <point x="76.0" y="606.0"/>
      <point x="76.0" y="756.0" type="qcurve" smooth="yes"/>
      <point x="76.0" y="887.0"/>
      <point x="154.0" y="1166.0"/>
      <point x="220.0" y="1275.0" type="qcurve" smooth="yes" name="inserted"/>
      <point x="285.0" y="1383.0"/>
      <point x="528.0" y="1524.0"/>
      <point x="696.0" y="1524.0" type="qcurve" smooth="yes"/>
      <point x="808.0" y="1524.0" name="inserted"/>
      <point x="1036.5" y="1465.5"/>
      <point x="1153.0" y="1407.0" type="qcurve"/>
      <point x="1100.0" y="1284.0" type="line"/>
      <point x="996.5" y="1341.5" name="inserted"/>
      <point x="794.5" y="1399.0"/>
    </contour>
  </outline>
</glyph>
<glyph name="D" format="1">
  <advance width="1490"/>
  <unicode hex="0044"/>
  <outline>
    <contour>
      <point x="102" y="1495" type="line"/>
      <point x="746" y="1495" type="line" smooth="yes"/>
      <point x="1053" y="1495"/>
      <point x="1388" y="1114"/>
      <point x="1388" y="748" type="qcurve" smooth="yes"/>
      <point x="1388" y="381"/>
      <point x="1053" y="-2"/>
      <point x="746" y="0" type="qcurve" smooth="yes"/>
      <point x="229" y="3" type="line"/>
      <point x="229" y="3"/>
      <point x="228" y="1358"/>
      <point x="228" y="1358" type="qcurve"/>
      <point x="102" y="1358" type="line"/>
    </contour>
    <contour>
      <point x="392" y="1358" type="line"/>
      <point x="392" y="131" type="line"/>
      <point x="754" y="131" type="line" smooth="yes"/>
      <point x="977" y="131"/>
      <point x="1234" y="438"/>
      <point x="1234" y="748" type="qcurve" smooth="yes"/>
      <point x="1234" y="1057"/>
      <point x="977" y="1358"/>
      <point x="754" y="1358" type="qcurve" smooth="yes"/>
    </contour>
  </outline>
</glyph>
<glyph name="E" format="1">
  <advance width="1182"/>
  <unicode hex="0045"/>
  <outline>
    <contour>
      <point x="99" y="1495" type="line"/>
      <point x="1011.0" y="1495.0" type="line" smooth="yes"/>
      <point x="1041.5" y="1495.0" name="inserted"/>
      <point x="1072.0" y="1463.5"/>
      <point x="1072.0" y="1432.0" type="qcurve" smooth="yes"/>
      <point x="1072" y="1222" type="line"/>
      <point x="957" y="1222" type="line"/>
      <point x="957" y="1358" type="line"/>
      <point x="398.0" y="1358" type="line"/>
      <point x="398.0" y="827" type="line"/>
      <point x="980.0" y="827" type="line"/>
      <point x="980.0" y="690" type="line"/>
      <point x="398.0" y="690" type="line"/>
      <point x="398.0" y="137" type="line"/>
      <point x="957" y="137" type="line"/>
      <point x="957" y="272" type="line"/>
      <point x="1093" y="272" type="line"/>
      <point x="1093.0" y="63.0" type="line" smooth="yes"/>
      <point x="1093.0" y="31.5" name="inserted"/>
      <point x="1061.0" y="0.0"/>
      <point x="1029.0" y="0.0" type="qcurve" smooth="yes"/>
      <point x="235.0" y="0.0" type="line"/>
      <point x="235.0" y="0.0"/>
      <point x="235" y="1358"/>
      <point x="235" y="1358" type="qcurve"/>
      <point x="99" y="1358" type="line"/>
    </contour>
  </outline>
</glyph>
<glyph name="F" format="1">
  <advance width="1198"/>
  <unicode hex="0046"/>
  <outline>
    <contour>
      <point x="608.0" y="0.0" type="line"/>
      <point x="277.0" y="1.0" type="line"/>
      <point x="277.0" y="1.0"/>
      <point x="277.0" y="1358.0"/>
      <point x="277.0" y="1358.0" type="qcurve"/>
      <point x="150" y="1358" type="line"/>
      <point x="150.0" y="1495.0" type="line"/>
      <point x="1018.0" y="1495.0" type="line" smooth="yes"/>
      <point x="1050.0" y="1495.0" name="inserted"/>
      <point x="1081.0" y="1464.0"/>
      <point x="1081.0" y="1432.0" type="qcurve" smooth="yes"/>
      <point x="1081.0" y="1202.0" type="line"/>
      <point x="957.0" y="1202.0" type="line"/>
      <point x="958.0" y="1358.0" type="line"/>
      <point x="440.0" y="1358.0" type="line"/>
      <point x="440.0" y="795.0" type="line"/>
      <point x="987.0" y="795.0" type="line"/>
      <point x="987.0" y="652.0" type="line"/>
      <point x="440.0" y="652.0" type="line"/>
      <point x="440.0" y="137.0" type="line"/>
      <point x="608.0" y="137.0" type="line"/>
    </contour>
  </outline>
</glyph>
<glyph name="G" format="1">
  <advance width="1305"/>
  <unicode hex="0047"/>
  <outline>
    <contour>
      <point x="686" y="-29" type="qcurve" smooth="yes"/>
      <point x="522" y="-29"/>
      <point x="307" y="113"/>
      <point x="243" y="227" type="qcurve" smooth="yes" name="inserted"/>
      <point x="178" y="340"/>
      <point x="125" y="625"/>
      <point x="125" y="766" type="qcurve" smooth="yes"/>
      <point x="125" y="897"/>
      <point x="178" y="1167"/>
      <point x="246" y="1277" type="qcurve" smooth="yes" name="inserted"/>
      <point x="313" y="1386"/>
      <point x="541" y="1524"/>
      <point x="715" y="1524" type="qcurve" smooth="yes"/>
      <point x="827" y="1524" name="inserted"/>
      <point x="1063" y="1466"/>
      <point x="1188" y="1407" type="qcurve"/>
      <point x="1133" y="1284" type="line"/>
      <point x="1027" y="1342" name="inserted"/>
      <point x="818" y="1399"/>
      <point x="715" y="1399" type="qcurve" smooth="yes"/>
      <point x="588" y="1399"/>
      <point x="424" y="1288"/>
      <point x="376" y="1199" type="qcurve" smooth="yes" name="inserted"/>
      <point x="328" y="1110"/>
      <point x="289" y="887"/>
      <point x="289" y="772" type="qcurve" smooth="yes"/>
      <point x="289" y="623"/>
      <point x="334" y="373"/>
      <point x="383" y="284" type="qcurve" smooth="yes" name="inserted"/>
      <point x="432" y="195"/>
      <point x="590" y="96"/>
      <point x="705" y="96" type="qcurve" smooth="yes"/>
      <point x="778" y="96"/>
      <point x="907" y="139"/>
      <point x="953" y="185" type="qcurve" smooth="yes" name="inserted"/>
      <point x="999" y="231"/>
      <point x="1053" y="369"/>
      <point x="1053" y="465" type="qcurve" smooth="yes"/>
      <point x="1053" y="637" type="line"/>
      <point x="782" y="637" type="line"/>
      <point x="782" y="770" type="line"/>
      <point x="1135" y="770" type="line" smooth="yes"/>
      <point x="1172" y="770" name="inserted"/>
      <point x="1208" y="740"/>
      <point x="1208" y="709" type="qcurve" smooth="yes"/>
      <point x="1208" y="459" type="line" smooth="yes"/>
      <point x="1208" y="328"/>
      <point x="1133" y="141"/>
      <point x="1064" y="83" type="qcurve" smooth="yes" name="inserted"/>
      <point x="995" y="25"/>
      <point x="803" y="-29"/>
    </contour>
  </outline>
</glyph>
<glyph name="H" format="1">
  <advance width="1587"/>
  <unicode hex="0048"/>
  <outline>
    <contour>
      <point x="1307" y="0" type="qcurve"/>
      <point x="1307" y="0"/>
      <point x="1145" y="1"/>
      <point x="1145" y="1" type="qcurve"/>
      <point x="1145" y="679" type="line"/>
      <point x="440" y="679" type="line"/>
      <point x="440" y="0" type="line" smooth="yes"/>
      <point x="440" y="0"/>
      <point x="277" y="0"/>
      <point x="277" y="0" type="qcurve"/>
      <point x="277" y="0"/>
      <point x="276" y="1358"/>
      <point x="276" y="1358" type="qcurve"/>
      <point x="150" y="1358" type="line"/>
      <point x="150" y="1495" type="line"/>
      <point x="377" y="1495" type="line" smooth="yes"/>
      <point x="409" y="1495" name="inserted"/>
      <point x="440" y="1464"/>
      <point x="440" y="1432" type="qcurve" smooth="yes"/>
      <point x="440" y="819" type="line"/>
      <point x="1145" y="819" type="line"/>
      <point x="1145" y="1432" type="line" smooth="yes"/>
      <point x="1145" y="1464" name="inserted"/>
      <point x="1177" y="1495"/>
      <point x="1208" y="1495" type="qcurve" smooth="yes"/>
      <point x="1436" y="1495" type="line"/>
      <point x="1436" y="1358" type="line"/>
      <point x="1309" y="1358" type="line"/>
      <point x="1309" y="1358"/>
      <point x="1307" y="0"/>
    </contour>
  </outline>
</glyph>
<glyph name="I" format="1">
  <advance width="717"/>
  <unicode hex="0049"/>
  <outline>
    <contour>
      <point x="576" y="0" type="line"/>
      <point x="140" y="0" type="line"/>
      <point x="140" y="137" type="line"/>
      <point x="276" y="137" type="line"/>
      <point x="276" y="1358" type="line"/>
      <point x="140" y="1358" type="line"/>
      <point x="140" y="1495" type="line"/>
      <point x="576" y="1495" type="line"/>
      <point x="576" y="1358" type="line"/>
      <point x="440" y="1358" type="line"/>
      <point x="440" y="137" type="line"/>
      <point x="576" y="137" type="line"/>
    </contour>
  </outline>
</glyph>
<glyph name="J" format="1">
  <advance width="1100"/>
  <unicode hex="004A"/>
  <outline>
    <contour>
      <point x="1011" y="1432" type="qcurve" smooth="yes"/>
      <point x="1011" y="418" type="line" smooth="yes"/>
      <point x="1011" y="195" name="inserted"/>
      <point x="761" y="-29"/>
      <point x="559" y="-29" type="qcurve" smooth="yes"/>
      <point x="360" y="-29" name="inserted"/>
      <point x="77" y="195"/>
      <point x="77" y="418" type="qcurve" smooth="yes"/>
      <point x="77" y="479" type="line"/>
      <point x="224" y="479" type="line"/>
      <point x="224" y="424" type="line" smooth="yes"/>
      <point x="224" y="260" name="inserted"/>
      <point x="432" y="103"/>
      <point x="557" y="103" type="qcurve" smooth="yes"/>
      <point x="679" y="103" name="inserted"/>
      <point x="856" y="232"/>
      <point x="856" y="424" type="qcurve" smooth="yes"/>
      <point x="856" y="1358" type="line"/>
      <point x="442" y="1358" type="line"/>
      <point x="442" y="1495" type="line"/>
      <point x="943" y="1495" type="line" smooth="yes"/>
      <point x="977" y="1495" name="inserted"/>
      <point x="1011" y="1464"/>
    </contour>
  </outline>
</glyph>
<glyph name="K" format="1">
  <advance width="1325"/>
  <unicode hex="004B"/>
  <outline>
    <contour>
      <point x="1282.0" y="0.0" type="line"/>
      <point x="1114.0" y="0.0" type="line" smooth="yes"/>
      <point x="1091.0" y="0.0" name="inserted"/>
      <point x="1042.0" y="30.0"/>
      <point x="1027.0" y="50.0" type="qcurve"/>
      <point x="602" y="688" type="line"/>
      <point x="440" y="688" type="line"/>
      <point x="440.0" y="2.0" type="line" smooth="yes"/>
      <point x="440.0" y="2.0"/>
      <point x="272.0" y="0.0"/>
      <point x="272.0" y="0.0" type="qcurve"/>
      <point x="272.0" y="0.0"/>
      <point x="272" y="1358"/>
      <point x="272" y="1358" type="qcurve"/>
      <point x="150" y="1358" type="line"/>
      <point x="150.0" y="1495.0" type="line"/>
      <point x="371.0" y="1495.0" type="line" smooth="yes"/>
      <point x="403.0" y="1495.0" name="inserted"/>
      <point x="440.0" y="1458.0"/>
      <point x="440.0" y="1426.0" type="qcurve" smooth="yes"/>
      <point x="440" y="826" type="line"/>
      <point x="610" y="826" type="line"/>
      <point x="1016.0" y="1452.0" type="line" smooth="yes"/>
      <point x="1029.0" y="1474.0" name="inserted"/>
      <point x="1072.0" y="1495.0"/>
      <point x="1098.0" y="1495.0" type="qcurve" smooth="yes"/>
      <point x="1264.0" y="1495.0" type="line"/>
      <point x="1264.0" y="1374.0" type="line"/>
      <point x="1151.0" y="1374.0" type="line"/>
      <point x="748.0" y="754.0" type="line"/>
      <point x="1169.0" y="121.0" type="line"/>
      <point x="1282.0" y="120.0" type="line"/>
    </contour>
  </outline>
</glyph>
<glyph name="L" format="1">
  <advance width="1053"/>
  <unicode hex="004C"/>
  <outline>
    <contour>
      <point x="441" y="111" type="qcurve"/>
      <point x="909" y="111" type="line"/>
      <point x="908" y="262" type="line"/>
      <point x="1032" y="262" type="line"/>
      <point x="1032" y="63" type="line" smooth="yes"/>
      <point x="1032.0" y="31.5" name="inserted"/>
      <point x="1001" y="0"/>
      <point x="969" y="0" type="qcurve" smooth="yes"/>
      <point x="276" y="0" type="line"/>
      <point x="276" y="0"/>
      <point x="276.0" y="1372.0"/>
      <point x="276" y="1372" type="qcurve"/>
      <point x="150" y="1371" type="line"/>
      <point x="150" y="1495" type="line"/>
      <point x="444" y="1495" type="line"/>
      <point x="444.0" y="1495.0"/>
      <point x="441" y="111"/>
    </contour>
  </outline>
</glyph>
<glyph name="N" format="1">
  <advance width="1624"/>
  <unicode hex="004E"/>
  <outline>
    <contour>
      <point x="1368" y="0" type="line"/>
      <point x="1233" y="0" type="line" smooth="yes"/>
      <point x="1206.5" y="0.0" name="inserted"/>
      <point x="1168.5" y="20.5"/>
      <point x="1157" y="41" type="qcurve" smooth="yes"/>
      <point x="440" y="1235" type="line"/>
      <point x="440" y="63" type="line" smooth="yes"/>
      <point x="440.0" y="31.5" name="inserted"/>
      <point x="408.5" y="0.0"/>
      <point x="377" y="0" type="qcurve" smooth="yes"/>
      <point x="150" y="0" type="line"/>
      <point x="150" y="118" type="line"/>
      <point x="276" y="121" type="line"/>
      <point x="276.0" y="121.0"/>
      <point x="279.0" y="1497.0"/>
      <point x="279" y="1497" type="qcurve"/>
      <point x="412" y="1495" type="line"/>
      <point x="434" y="1493"/>
      <point x="475" y="1475"/>
      <point x="487" y="1454" type="qcurve" smooth="yes"/>
      <point x="1204" y="258" type="line"/>
      <point x="1204" y="1432" type="line" smooth="yes"/>
      <point x="1204.0" y="1463.5" name="inserted"/>
      <point x="1235.0" y="1495.0"/>
      <point x="1266" y="1495" type="qcurve" smooth="yes"/>
      <point x="1495" y="1495" type="line"/>
      <point x="1495" y="1371" type="line"/>
      <point x="1368" y="1372" type="line"/>
    </contour>
  </outline>
</glyph>
<glyph name="O" format="1">
  <advance width="1625"/>
  <unicode hex="004F"/>
  <outline>
    <contour>
      <point x="816" y="112" type="qcurve" smooth="yes"/>
      <point x="1067" y="112"/>
      <point x="1426" y="487"/>
      <point x="1426" y="758" type="qcurve" smooth="yes"/>
      <point x="1426" y="1023"/>
      <point x="1067" y="1385"/>
      <point x="816" y="1385" type="qcurve" smooth="yes"/>
      <point x="564" y="1385"/>
      <point x="207" y="1023"/>
      <point x="207" y="758" type="qcurve" smooth="yes"/>
      <point x="207" y="487"/>
      <point x="564" y="112"/>
    </contour>
    <contour>
      <point x="816" y="1526" type="qcurve" smooth="yes"/>
      <point x="1134" y="1526"/>
      <point x="1582" y="1081"/>
      <point x="1582" y="758" type="qcurve" smooth="yes"/>
      <point x="1582" y="430"/>
      <point x="1134" y="-29"/>
      <point x="816" y="-29" type="qcurve" smooth="yes"/>
      <point x="497" y="-29"/>
      <point x="51" y="430"/>
      <point x="51" y="758" type="qcurve" smooth="yes"/>
      <point x="51" y="1081"/>
      <point x="497" y="1526"/>
    </contour>
  </outline>
</glyph>
<glyph name="P" format="1">
  <advance width="1300"/>
  <unicode hex="0050"/>
  <outline>
    <contour>
      <point x="414" y="705" type="line"/>
      <point x="719" y="705" type="line" smooth="yes"/>
      <point x="879" y="705" name="inserted"/>
      <point x="1039" y="874"/>
      <point x="1039" y="1047" type="qcurve" smooth="yes"/>
      <point x="1039" y="1220" name="inserted"/>
      <point x="879" y="1358"/>
      <point x="719" y="1358" type="qcurve" smooth="yes"/>
      <point x="410" y="1358" type="line"/>
      <point x="410" y="1358"/>
      <point x="408" y="0"/>
      <point x="408" y="0" type="qcurve"/>
      <point x="247" y="0" type="line"/>
      <point x="247" y="0"/>
      <point x="246" y="1358"/>
      <point x="246" y="1358" type="qcurve"/>
      <point x="120" y="1358" type="line"/>
      <point x="120" y="1495" type="line"/>
      <point x="719" y="1495" type="line" smooth="yes"/>
      <point x="955" y="1495"/>
      <point x="1198" y="1273"/>
      <point x="1198" y="1043" type="qcurve" smooth="yes"/>
      <point x="1198" y="814"/>
      <point x="959" y="572"/>
      <point x="719" y="572" type="qcurve" smooth="yes"/>
      <point x="414" y="572" type="line"/>
    </contour>
  </outline>
</glyph>
<glyph name="Q" format="1">
  <advance width="1454"/>
  <unicode hex="0051"/>
  <outline>
    <contour>
      <point x="730" y="100" type="qcurve" smooth="yes"/>
      <point x="628" y="100"/>
      <point x="467" y="184"/>
      <point x="410" y="268" type="qcurve" smooth="yes"/>
      <point x="353" y="352"/>
      <point x="296" y="595"/>
      <point x="296" y="752" type="qcurve" smooth="yes"/>
      <point x="296" y="909"/>
      <point x="353" y="1151"/>
      <point x="410" y="1235" type="qcurve" smooth="yes"/>
      <point x="467" y="1319"/>
      <point x="628" y="1403"/>
      <point x="730" y="1403" type="qcurve" smooth="yes"/>
      <point x="831" y="1403"/>
      <point x="993" y="1319"/>
      <point x="1050" y="1235" type="qcurve" smooth="yes"/>
      <point x="1107" y="1151"/>
      <point x="1166" y="909"/>
      <point x="1166" y="752" type="qcurve" smooth="yes"/>
      <point x="1166" y="618"/>
      <point x="1123" y="401"/>
      <point x="1081" y="321" type="qcurve"/>
      <point x="933" y="470" type="line"/>
      <point x="837" y="375" type="line"/>
      <point x="1002" y="209" type="line"/>
      <point x="949" y="155"/>
      <point x="812" y="100"/>
    </contour>
    <contour>
      <point x="1330" y="72" type="line"/>
      <point x="1194" y="208" type="line"/>
      <point x="1196" y="210"/>
      <point x="1200" y="216"/>
      <point x="1202" y="218" type="qcurve" smooth="yes"/>
      <point x="1265" y="318"/>
      <point x="1330" y="596"/>
      <point x="1330" y="772" type="qcurve" smooth="yes"/>
      <point x="1330" y="860"/>
      <point x="1308" y="1019"/>
      <point x="1288" y="1088" type="qcurve" smooth="yes"/>
      <point x="1267" y="1158"/>
      <point x="1206" y="1278"/>
      <point x="1168" y="1326" type="qcurve" smooth="yes"/>
      <point x="1129" y="1374"/>
      <point x="1034" y="1449"/>
      <point x="979" y="1476" type="qcurve" smooth="yes"/>
      <point x="924" y="1502"/>
      <point x="799" y="1528"/>
      <point x="730" y="1528" type="qcurve" smooth="yes"/>
      <point x="660" y="1528"/>
      <point x="535" y="1502"/>
      <point x="481" y="1477" type="qcurve" smooth="yes"/>
      <point x="427" y="1451"/>
      <point x="332" y="1376"/>
      <point x="294" y="1327" type="qcurve" smooth="yes"/>
      <point x="255" y="1278"/>
      <point x="195" y="1157"/>
      <point x="174" y="1085" type="qcurve" smooth="yes"/>
      <point x="154" y="1014"/>
      <point x="133" y="850"/>
      <point x="133" y="758" type="qcurve" smooth="yes"/>
      <point x="133" y="574"/>
      <point x="208" y="289"/>
      <point x="281" y="189" type="qcurve" smooth="yes"/>
      <point x="354" y="90"/>
      <point x="561" y="-17"/>
      <point x="693" y="-23" type="qcurve"/>
      <point x="693" y="-23"/>
      <point x="731" y="-22"/>
      <point x="769" y="-21" type="qcurve" smooth="yes"/>
      <point x="806" y="-20"/>
      <point x="845" y="-19"/>
      <point x="845" y="-19" type="qcurve"/>
      <point x="921" y="-6"/>
      <point x="1053" y="56"/>
      <point x="1106" y="105" type="qcurve"/>
      <point x="1234" y="-23" type="line"/>
    </contour>
  </outline>
</glyph>
<glyph name="R" format="1">
  <advance width="1429"/>
  <unicode hex="0052"/>
  <outline>
    <contour>
      <point x="408" y="747" type="line"/>
      <point x="704" y="747" type="line" smooth="yes"/>
      <point x="864" y="747"/>
      <point x="1023" y="897"/>
      <point x="1023" y="1053" type="qcurve" smooth="yes"/>
      <point x="1023" y="1212"/>
      <point x="864" y="1358"/>
      <point x="704" y="1358" type="qcurve" smooth="yes"/>
      <point x="408" y="1358" type="line"/>
    </contour>
    <contour>
      <point x="408" y="616" type="line"/>
      <point x="408" y="0" type="line"/>
      <point x="244" y="0" type="line"/>
      <point x="244" y="1358" type="line"/>
      <point x="117" y="1358" type="line"/>
      <point x="117" y="1495" type="line"/>
      <point x="704" y="1495" type="line" smooth="yes"/>
      <point x="939" y="1495"/>
      <point x="1183" y="1268"/>
      <point x="1183" y="1053" type="qcurve" smooth="yes"/>
      <point x="1183" y="890" name="inserted"/>
      <point x="1034" y="681"/>
      <point x="919" y="643" type="qcurve"/>
      <point x="969" y="620" name="inserted"/>
      <point x="1027" y="543"/>
      <point x="1050" y="489" type="qcurve" smooth="yes"/>
      <point x="1210" y="137" type="line"/>
      <point x="1338" y="137" type="line"/>
      <point x="1339" y="0" type="line"/>
      <point x="1140" y="0" type="line" smooth="yes"/>
      <point x="1113" y="0" name="inserted"/>
      <point x="1076" y="24"/>
      <point x="1066" y="47" type="qcurve" smooth="yes"/>
      <point x="888" y="467" type="line" smooth="yes"/>
      <point x="868" y="514"/>
      <point x="825" y="571"/>
      <point x="796" y="588" type="qcurve" smooth="yes" name="inserted"/>
      <point x="767" y="604"/>
      <point x="686" y="616"/>
      <point x="628" y="616" type="qcurve" smooth="yes"/>
    </contour>
  </outline>
</glyph>
<glyph name="S" format="1">
  <advance width="1116"/>
  <unicode hex="0053"/>
  <outline>
    <contour>
      <point x="944" y="1300" type="line"/>
      <point x="840" y="1352"/>
      <point x="659" y="1399"/>
      <point x="582" y="1399" type="qcurve" smooth="yes"/>
      <point x="442" y="1399"/>
      <point x="287" y="1266"/>
      <point x="287" y="1151" type="qcurve" smooth="yes"/>
      <point x="287" y="1075"/>
      <point x="352" y="969"/>
      <point x="404.5" y="928.0" type="qcurve" smooth="yes" name="inserted"/>
      <point x="457" y="887"/>
      <point x="592" y="825"/>
      <point x="662.5" y="794.5" type="qcurve" smooth="yes" name="inserted"/>
      <point x="733" y="764"/>
      <point x="868" y="692"/>
      <point x="920.5" y="644.0" type="qcurve" smooth="yes" name="inserted"/>
      <point x="973" y="596"/>
      <point x="1038" y="463"/>
      <point x="1038" y="369" type="qcurve" smooth="yes"/>
      <point x="1038" y="274"/>
      <point x="971" y="127"/>
      <point x="909.5" y="76.0" type="qcurve" smooth="yes" name="inserted"/>
      <point x="848" y="25"/>
      <point x="678" y="-29"/>
      <point x="578" y="-29" type="qcurve" smooth="yes"/>
      <point x="373" y="-29"/>
      <point x="121" y="188"/>
      <point x="78" y="387" type="qcurve"/>
      <point x="221" y="422" type="line"/>
      <point x="262.0" y="259.0" name="inserted"/>
      <point x="434.0" y="96.0"/>
      <point x="565" y="96" type="qcurve" smooth="yes"/>
      <point x="713" y="96"/>
      <point x="874" y="240"/>
      <point x="874" y="369" type="qcurve" smooth="yes"/>
      <point x="874" y="461"/>
      <point x="764" y="575"/>
      <point x="680.0" y="619.5" type="qcurve" smooth="yes" name="inserted"/>
      <point x="596" y="664"/>
      <point x="401" y="743"/>
      <point x="317.0" y="799.5" type="qcurve" smooth="yes" name="inserted"/>
      <point x="233" y="856"/>
      <point x="123" y="1024"/>
      <point x="123" y="1155" type="qcurve" smooth="yes"/>
      <point x="123" y="1243"/>
      <point x="193" y="1380"/>
      <point x="254.0" y="1427.5" type="qcurve" smooth="yes" name="inserted"/>
      <point x="315" y="1475"/>
      <point x="481" y="1524"/>
      <point x="580" y="1524" type="qcurve" smooth="yes"/>
      <point x="678" y="1524"/>
      <point x="887" y="1475"/>
      <point x="995" y="1423" type="qcurve"/>
    </contour>
  </outline>
</glyph>
<glyph name="T" format="1">
  <advance width="1143"/>
  <unicode hex="0054"/>
  <outline>
    <contour>
      <point x="102" y="1495" type="qcurve" smooth="yes"/>
      <point x="1040" y="1495" type="line" smooth="yes"/>
      <point x="1072" y="1495" name="inserted"/>
      <point x="1104" y="1464"/>
      <point x="1104" y="1432" type="qcurve" smooth="yes"/>
      <point x="1104" y="1237" type="line"/>
      <point x="981" y="1237" type="line"/>
      <point x="981" y="1358" type="line"/>
      <point x="654" y="1358" type="line"/>
      <point x="654" y="1358"/>
      <point x="656" y="0"/>
      <point x="656" y="0" type="qcurve"/>
      <point x="488" y="0" type="line"/>
      <point x="488" y="0"/>
      <point x="488" y="1358"/>
      <point x="488" y="1358" type="qcurve"/>
      <point x="162" y="1358" type="line"/>
      <point x="163" y="1237" type="line"/>
      <point x="39" y="1237" type="line"/>
      <point x="39" y="1432" type="line" smooth="yes"/>
      <point x="39" y="1464" name="inserted"/>
      <point x="71" y="1495"/>
    </contour>
  </outline>
</glyph>
<glyph name="U" format="1">
  <advance width="1494"/>
  <unicode hex="0055"/>
  <outline>
    <contour>
      <point x="1279" y="574" type="line" smooth="yes"/>
      <point x="1279" y="414"/>
      <point x="1204" y="195"/>
      <point x="1134" y="128" type="qcurve" smooth="yes" name="inserted"/>
      <point x="1064" y="60"/>
      <point x="866" y="0"/>
      <point x="745" y="0" type="qcurve" smooth="yes"/>
      <point x="628" y="0"/>
      <point x="434" y="58"/>
      <point x="363" y="126" type="qcurve" smooth="yes" name="inserted"/>
      <point x="292" y="193"/>
      <point x="215" y="412"/>
      <point x="215" y="574" type="qcurve" smooth="yes"/>
      <point x="215" y="1358" type="line"/>
      <point x="79" y="1358" type="line"/>
      <point x="79" y="1495" type="line"/>
      <point x="311" y="1495" type="line" smooth="yes"/>
      <point x="344.5" y="1495.0" name="inserted"/>
      <point x="378.0" y="1463.5"/>
      <point x="378" y="1432" type="qcurve" smooth="yes"/>
      <point x="378" y="580" type="line" smooth="yes"/>
      <point x="378" y="355" name="inserted"/>
      <point x="562" y="146"/>
      <point x="745" y="146" type="qcurve" smooth="yes"/>
      <point x="931" y="146" name="inserted"/>
      <point x="1116" y="355"/>
      <point x="1116" y="580" type="qcurve" smooth="yes"/>
      <point x="1116" y="1432" type="line" smooth="yes"/>
      <point x="1116.0" y="1463.5" name="inserted"/>
      <point x="1149.5" y="1495.0"/>
      <point x="1183" y="1495" type="qcurve" smooth="yes"/>
      <point x="1415" y="1495" type="line"/>
      <point x="1415" y="1358" type="line"/>
      <point x="1279" y="1358" type="line"/>
    </contour>
  </outline>
</glyph>
<glyph name="V" format="1">
  <advance width="1264"/>
  <unicode hex="0056"/>
  <outline>
    <contour>
      <point x="1098" y="1495" type="qcurve" smooth="yes"/>
      <point x="1270" y="1495" type="line"/>
      <point x="1270" y="1358" type="line"/>
      <point x="1174" y="1358" type="line"/>
      <point x="737" y="0" type="line"/>
      <point x="524" y="0" type="line"/>
      <point x="88" y="1358" type="line"/>
      <point x="-6" y="1358" type="line"/>
      <point x="-6" y="1495" type="line"/>
      <point x="166" y="1495" type="line" smooth="yes"/>
      <point x="193" y="1495" name="inserted"/>
      <point x="228" y="1469"/>
      <point x="236" y="1442" type="qcurve" smooth="yes"/>
      <point x="627" y="166" type="line"/>
      <point x="635" y="166" type="line"/>
      <point x="1028" y="1442" type="line" smooth="yes"/>
      <point x="1036" y="1469" name="inserted"/>
      <point x="1071" y="1495"/>
    </contour>
  </outline>
</glyph>
<glyph name="W" format="1">
  <advance width="1921"/>
  <unicode hex="0057"/>
  <outline>
    <contour>
      <point x="1712" y="1495" type="qcurve" smooth="yes"/>
      <point x="1882" y="1495" type="line"/>
      <point x="1882" y="1358" type="line"/>
      <point x="1788" y="1358" type="line"/>
      <point x="1489" y="0" type="line"/>
      <point x="1284" y="0" type="line"/>
      <point x="960" y="1358" type="line"/>
      <point x="637" y="0" type="line"/>
      <point x="432" y="0" type="line"/>
      <point x="133" y="1358" type="line"/>
      <point x="39" y="1357" type="line"/>
      <point x="39" y="1495" type="line"/>
      <point x="211" y="1495" type="line" smooth="yes"/>
      <point x="240" y="1495" name="inserted"/>
      <point x="275" y="1469"/>
      <point x="281" y="1442" type="qcurve" smooth="yes"/>
      <point x="532" y="178" type="line"/>
      <point x="543" y="178" type="line"/>
      <point x="850" y="1442" type="line" smooth="yes"/>
      <point x="856" y="1469" name="inserted"/>
      <point x="891" y="1495"/>
      <point x="919" y="1495" type="qcurve" smooth="yes"/>
      <point x="1001" y="1495" type="line" smooth="yes"/>
      <point x="1030" y="1495" name="inserted"/>
      <point x="1065" y="1469"/>
      <point x="1071" y="1442" type="qcurve" smooth="yes"/>
      <point x="1380" y="178" type="line"/>
      <point x="1388" y="178" type="line"/>
      <point x="1640" y="1442" type="line" smooth="yes"/>
      <point x="1646" y="1469" name="inserted"/>
      <point x="1682" y="1495"/>
    </contour>
  </outline>
</glyph>
<glyph name="X" format="1">
  <advance width="1378"/>
  <unicode hex="0058"/>
  <outline>
    <contour>
      <point x="1100.0" y="1495.0" type="qcurve" smooth="yes"/>
      <point x="1276.0" y="1495.0" type="line"/>
      <point x="1276" y="1358" type="line"/>
      <point x="1155" y="1358" type="line"/>
      <point x="786.0" y="774.0" type="line"/>
      <point x="786.0" y="774.0"/>
      <point x="1271.0" y="0.0"/>
      <point x="1271.0" y="0.0" type="qcurve"/>
      <point x="1092" y="0" type="line"/>
      <point x="696.0" y="640.0" type="line"/>
      <point x="303" y="0" type="line" smooth="yes"/>
      <point x="114.0" y="0.0" type="line"/>
      <point x="114.0" y="0.0"/>
      <point x="592.0" y="776.0"/>
      <point x="592.0" y="776.0" type="qcurve"/>
      <point x="223" y="1358" type="line"/>
      <point x="102" y="1359" type="line"/>
      <point x="102" y="1495" type="line"/>
      <point x="291" y="1495" type="line" smooth="yes"/>
      <point x="315" y="1495" name="inserted"/>
      <point x="353" y="1474"/>
      <point x="367" y="1452" type="qcurve" smooth="yes"/>
      <point x="698.0" y="915.0" type="line"/>
      <point x="1026.0" y="1452.0" type="line" smooth="yes"/>
      <point x="1039.5" y="1473.5" name="inserted"/>
      <point x="1076.5" y="1495.0"/>
    </contour>
  </outline>
</glyph>
<glyph name="Y" format="1">
  <advance width="1319"/>
  <unicode hex="0059"/>
  <outline>
    <contour>
      <point x="743" y="0" type="qcurve"/>
      <point x="597" y="0" type="line"/>
      <point x="597" y="0"/>
      <point x="597" y="530"/>
      <point x="597" y="530" type="qcurve"/>
      <point x="175" y="1365" type="line"/>
      <point x="39" y="1365" type="line"/>
      <point x="39" y="1495" type="line"/>
      <point x="251" y="1495" type="line" smooth="yes"/>
      <point x="280" y="1495" name="inserted"/>
      <point x="316" y="1471"/>
      <point x="327" y="1448" type="qcurve" smooth="yes"/>
      <point x="670" y="711" type="line"/>
      <point x="994" y="1448" type="line" smooth="yes"/>
      <point x="1005" y="1472" name="inserted"/>
      <point x="1042" y="1495"/>
      <point x="1070" y="1495" type="qcurve" smooth="yes"/>
      <point x="1280" y="1495" type="line"/>
      <point x="1280" y="1365" type="line"/>
      <point x="1144" y="1365" type="line"/>
      <point x="743" y="537" type="line"/>
      <point x="743" y="537"/>
      <point x="743" y="0"/>
    </contour>
  </outline>
</glyph>
<glyph name="Z" format="1">
  <advance width="1231"/>
  <unicode hex="005A"/>
  <outline>
    <contour>
      <point x="1114" y="274" type="line"/>
      <point x="1114.0" y="63.0" type="line" smooth="yes"/>
      <point x="1114.0" y="31.5" name="inserted"/>
      <point x="1082.5" y="0.0"/>
      <point x="1051.0" y="0.0" type="qcurve" smooth="yes"/>
      <point x="117.0" y="0.0" type="line"/>
      <point x="117.0" y="98.0" type="line"/>
      <point x="942.0" y="1358.0" type="line"/>
      <point x="281" y="1358" type="line"/>
      <point x="281" y="1231" type="line"/>
      <point x="158" y="1231" type="line"/>
      <point x="158.0" y="1432.0" type="line" smooth="yes"/>
      <point x="158.0" y="1463.5" name="inserted"/>
      <point x="189.5" y="1495.0"/>
      <point x="221.0" y="1495.0" type="qcurve" smooth="yes"/>
      <point x="1114.0" y="1495.0" type="line"/>
      <point x="1113" y="1388" type="line"/>
      <point x="306" y="136" type="line"/>
      <point x="991" y="136" type="line"/>
      <point x="991" y="274" type="line"/>
    </contour>
  </outline>
</glyph>
<glyph name="bracketleft" format="1">
  <advance width="623.0"/>
  <unicode hex="005B"/>
  <outline>
    <contour>
      <point x="575" y="1577" type="line"/>
      <point x="328" y="1577" type="line"/>
      <point x="328" y="-55" type="line"/>
      <point x="575" y="-55" type="line"/>
      <point x="575" y="-204" type="line"/>
      <point x="173" y="-204" type="line"/>
      <point x="173" y="1726" type="line"/>
      <point x="575" y="1726" type="line"/>
    </contour>
  </outline>
</glyph>
<glyph name="backslash" format="1">
  <advance width="743"/>
  <unicode hex="005C"/>
  <outline>
    <contour>
      <point x="698" y="-171" type="line"/>
      <point x="537" y="-171" type="line"/>
      <point x="45" y="1587" type="line"/>
      <point x="207" y="1587" type="line"/>
    </contour>
  </outline>
</glyph>
<glyph name="bracketright" format="1">
  <advance width="624.0"/>
  <unicode hex="005D"/>
  <outline>
    <contour>
      <point x="296" y="1610" type="line"/>
      <point x="48" y="1610" type="line"/>
      <point x="48.0" y="1759.0" type="line"/>
      <point x="450" y="1759" type="line"/>
      <point x="450" y="-259" type="line"/>
      <point x="48.0" y="-259.0" type="line"/>
      <point x="48" y="-110" type="line"/>
      <point x="296" y="-110" type="line"/>
    </contour>
  </outline>
</glyph>
<glyph name="asciicircum" format="1">
  <advance width="1196"/>
  <unicode hex="005E"/>
  <outline>
    <contour>
      <point x="996" y="876" type="line"/>
      <point x="840" y="876" type="line"/>
      <point x="598" y="1367" type="line"/>
      <point x="356" y="876" type="line"/>
      <point x="201" y="876" type="line"/>
      <point x="504" y="1495" type="line"/>
      <point x="691" y="1495" type="line"/>
    </contour>
  </outline>
</glyph>
<glyph name="grave" format="1">
  <advance width="643"/>
  <unicode hex="0060"/>
  <outline>
    <contour>
      <point x="366" y="1322" type="line"/>
      <point x="126" y="1576" type="line"/>
      <point x="327" y="1576" type="line"/>
      <point x="513" y="1322" type="line"/>
    </contour>
  </outline>
</glyph>
<glyph name="a" format="1">
  <advance width="1179"/>
  <unicode hex="0061"/>
  <outline>
    <contour>
      <point x="1072" y="124" type="line" smooth="yes"/>
      <point x="1032.0" y="124.0"/>
      <point x="979.0" y="160.0"/>
      <point x="979" y="210" type="qcurve" smooth="yes"/>
      <point x="979" y="746" type="line" smooth="yes"/>
      <point x="979.0" y="955.293357177"/>
      <point x="788.710246237" y="1115.0"/>
      <point x="580" y="1115" type="qcurve" smooth="yes"/>
      <point x="330.123947918" y="1115.0"/>
      <point x="159.0" y="985.523073169"/>
      <point x="159" y="922" type="qcurve" smooth="yes"/>
      <point x="159" y="829" type="line"/>
      <point x="297" y="829" type="line"/>
      <point x="297" y="880" type="line" smooth="yes"/>
      <point x="297.0" y="939.632339051"/>
      <point x="392.846109713" y="1000.0"/>
      <point x="580" y="1000" type="qcurve" smooth="yes"/>
      <point x="793.532467229" y="1000.0"/>
      <point x="844.0" y="796.262613991"/>
      <point x="844" y="687" type="qcurve"/>
      <point x="701" y="687" type="line" smooth="yes"/>
      <point x="405.510914981" y="687.0"/>
      <point x="78.0" y="531.987147191"/>
      <point x="78" y="331" type="qcurve" smooth="yes"/>
      <point x="78.0" y="119.915652053"/>
      <point x="296.119936897" y="-43.0522809764"/>
      <point x="499" y="-31" type="qcurve" smooth="yes"/>
      <point x="632" y="-24"/>
      <point x="773" y="55"/>
      <point x="807" y="98" type="qcurve" smooth="yes"/>
      <point x="836" y="134"/>
      <point x="853" y="171"/>
      <point x="864" y="194" type="qcurve"/>
      <point x="863" y="136"/>
      <point x="912" y="0"/>
      <point x="1024" y="0" type="qcurve" smooth="yes"/>
      <point x="1160" y="0" type="line"/>
      <point x="1160" y="124" type="line"/>
    </contour>
    <contour>
      <point x="844" y="489" type="line" smooth="yes"/>
      <point x="844" y="437"/>
      <point x="799" y="304"/>
      <point x="753" y="232" type="qcurve" smooth="yes"/>
      <point x="707" y="160"/>
      <point x="577" y="93"/>
      <point x="495" y="91" type="qcurve" smooth="yes"/>
      <point x="408" y="91"/>
      <point x="291" y="117"/>
      <point x="261" y="143" type="qcurve" smooth="yes"/>
      <point x="231" y="170"/>
      <point x="203" y="264"/>
      <point x="204" y="332" type="qcurve"/>
      <point x="197.984680751" y="470.352342717"/>
      <point x="467.599495834" y="572.98475858"/>
      <point x="703" y="567" type="qcurve" smooth="yes"/>
      <point x="844" y="567" type="line"/>
    </contour>
  </outline>
</glyph>
<glyph name="b" format="1">
  <advance width="1282"/>
  <unicode hex="0062"/>
  <outline>
    <contour>
      <point x="925" y="269" type="qcurve" smooth="yes"/>
      <point x="880" y="204"/>
      <point x="749" y="138"/>
      <point x="664" y="138" type="qcurve" smooth="yes"/>
      <point x="631" y="138"/>
      <point x="571" y="150"/>
      <point x="544" y="161" type="qcurve" smooth="yes"/>
      <point x="517" y="172"/>
      <point x="469" y="208"/>
      <point x="450" y="231" type="qcurve" smooth="yes"/>
      <point x="430" y="255"/>
      <point x="398" y="315"/>
      <point x="387" y="352" type="qcurve" smooth="yes"/>
      <point x="376" y="389"/>
      <point x="364" y="472"/>
      <point x="364" y="483" type="qcurve" smooth="yes"/>
      <point x="364" y="888" type="line"/>
      <point x="401" y="934"/>
      <point x="478" y="1005"/>
      <point x="519" y="1029" type="qcurve" smooth="yes"/>
      <point x="559" y="1052"/>
      <point x="646" y="1076"/>
      <point x="690" y="1076" type="qcurve" smooth="yes"/>
      <point x="734" y="1076"/>
      <point x="809" y="1056"/>
      <point x="840" y="1037" type="qcurve" smooth="yes"/>
      <point x="871" y="1017"/>
      <point x="921" y="964"/>
      <point x="940" y="932" type="qcurve" smooth="yes"/>
      <point x="960" y="898"/>
      <point x="988" y="820"/>
      <point x="996" y="775" type="qcurve" smooth="yes"/>
      <point x="1005" y="731"/>
      <point x="1013" y="635"/>
      <point x="1013" y="584" type="qcurve" smooth="yes"/>
      <point x="1013" y="471"/>
      <point x="969" y="335"/>
    </contour>
    <contour>
      <point x="1152" y="806" type="qcurve" smooth="yes"/>
      <point x="1140" y="861"/>
      <point x="1102" y="960"/>
      <point x="1077" y="1004" type="qcurve" smooth="yes"/>
      <point x="1051" y="1047"/>
      <point x="983" y="1118"/>
      <point x="942" y="1145" type="qcurve" smooth="yes"/>
      <point x="900" y="1171"/>
      <point x="800" y="1199"/>
      <point x="742" y="1199" type="qcurve" smooth="yes"/>
      <point x="687" y="1199"/>
      <point x="585" y="1175"/>
      <point x="538" y="1152" type="qcurve" smooth="yes"/>
      <point x="491" y="1128"/>
      <point x="404" y="1057"/>
      <point x="364" y="1011" type="qcurve"/>
      <point x="364" y="1512" type="line" smooth="yes"/>
      <point x="364" y="1527"/>
      <point x="357" y="1551"/>
      <point x="349" y="1559" type="qcurve" smooth="yes"/>
      <point x="342" y="1567"/>
      <point x="319" y="1575"/>
      <point x="304" y="1575" type="qcurve" smooth="yes"/>
      <point x="75" y="1575" type="line"/>
      <point x="75" y="1451" type="line"/>
      <point x="202" y="1451" type="line"/>
      <point x="202" y="479" type="line" smooth="yes"/>
      <point x="202" y="465"/>
      <point x="203" y="436"/>
      <point x="204" y="422" type="qcurve"/>
      <point x="204" y="-31" type="line"/>
      <point x="364" y="-31" type="line"/>
      <point x="364" y="122" type="line"/>
      <point x="390" y="102"/>
      <point x="449" y="52"/>
      <point x="483" y="41" type="qcurve" smooth="yes"/>
      <point x="527" y="28"/>
      <point x="627" y="-9"/>
      <point x="683" y="-9" type="qcurve" smooth="yes"/>
      <point x="744" y="-9"/>
      <point x="853" y="32"/>
      <point x="900" y="60" type="qcurve" smooth="yes"/>
      <point x="947" y="88"/>
      <point x="1025" y="164"/>
      <point x="1056" y="213" type="qcurve" smooth="yes"/>
      <point x="1085" y="259"/>
      <point x="1131" y="357"/>
      <point x="1146" y="411" type="qcurve" smooth="yes"/>
      <point x="1161" y="465"/>
      <point x="1176" y="530"/>
      <point x="1176" y="584" type="qcurve" smooth="yes"/>
      <point x="1176" y="640"/>
      <point x="1164" y="752"/>
    </contour>
  </outline>
</glyph>
<glyph name="c" format="1">
  <advance width="1193"/>
  <unicode hex="0063"/>
  <outline>
    <contour>
      <point x="116.338709677" y="301.64516129"/>
      <point x="116.656" y="802.624"/>
      <point x="280" y="958" type="qcurve" smooth="yes"/>
      <point x="432.386825422" y="1102.95332174"/>
      <point x="883.925509171" y="1122.25959266"/>
      <point x="1003" y="1027" type="qcurve"/>
      <point x="1043" y="996"/>
      <point x="1084" y="961"/>
      <point x="1084" y="961" type="qcurve"/>
      <point x="997" y="867" type="line"/>
      <point x="997" y="867"/>
      <point x="959" y="899"/>
      <point x="931" y="922" type="qcurve"/>
      <point x="839" y="1000"/>
      <point x="467" y="974"/>
      <point x="373" y="858" type="qcurve"/>
      <point x="248" y="743"/>
      <point x="256" y="370"/>
      <point x="368" y="247" type="qcurve"/>
      <point x="442" y="180"/>
      <point x="589" y="105"/>
      <point x="682" y="105" type="qcurve" smooth="yes"/>
      <point x="776" y="105"/>
      <point x="937" y="186"/>
      <point x="988" y="295" type="qcurve"/>
      <point x="1104" y="247" type="line"/>
      <point x="1056" y="105"/>
      <point x="804" y="-20"/>
      <point x="688" y="-20" type="qcurve" smooth="yes"/>
      <point x="568" y="-20"/>
      <point x="363" y="61"/>
      <point x="281" y="141" type="qcurve" smooth="yes"/>
    </contour>
  </outline>
</glyph>
<glyph name="d" format="1">
  <advance width="1285"/>
  <unicode hex="0064"/>
  <outline>
    <contour>
      <point x="823" y="1495" type="line"/>
      <point x="1023" y="1495" type="line" smooth="yes"/>
      <point x="1058" y="1495"/>
      <point x="1084" y="1464"/>
      <point x="1084" y="1431" type="qcurve" smooth="yes"/>
      <point x="1084" y="236" type="line" smooth="yes"/>
      <point x="1084" y="180" name="inserted"/>
      <point x="1128" y="124"/>
      <point x="1172" y="124" type="qcurve"/>
      <point x="1277" y="124" type="line"/>
      <point x="1277" y="0" type="line"/>
      <point x="1119" y="0" type="line"/>
      <point x="1031" y="0" name="inserted"/>
      <point x="972" y="80"/>
      <point x="963" y="172" type="qcurve"/>
      <point x="895" y="80" name="inserted"/>
      <point x="707" y="-10"/>
      <point x="606" y="-10" type="qcurve" smooth="yes"/>
      <point x="349" y="-10"/>
      <point x="88" y="275"/>
      <point x="86" y="532" type="qcurve" smooth="yes"/>
      <point x="84" y="762"/>
      <point x="349" y="1115"/>
      <point x="605" y="1115" type="qcurve" smooth="yes"/>
      <point x="681" y="1115" name="inserted"/>
      <point x="873" y="1077"/>
      <point x="946" y="1039" type="qcurve"/>
      <point x="946" y="1358" type="line"/>
      <point x="823" y="1358" type="line"/>
    </contour>
    <contour>
      <point x="605" y="995" type="qcurve" smooth="yes"/>
      <point x="451" y="995" name="inserted"/>
      <point x="222" y="746"/>
      <point x="222" y="529" type="qcurve" smooth="yes"/>
      <point x="222" y="326"/>
      <point x="430" y="110"/>
      <point x="605" y="110" type="qcurve" smooth="yes"/>
      <point x="695" y="110" name="inserted"/>
      <point x="898" y="254"/>
      <point x="946" y="355" type="qcurve"/>
      <point x="946" y="905" type="line"/>
      <point x="884" y="940" name="inserted"/>
      <point x="683" y="995"/>
    </contour>
  </outline>
</glyph>
<glyph name="e" format="1">
  <advance width="1250"/>
  <unicode hex="0065"/>
  <outline>
    <contour>
      <point x="1179" y="530" type="line"/>
      <point x="284" y="530" type="line"/>
      <point x="284" y="428"/>
      <point x="323.0" y="306.0"/>
      <point x="369.0" y="246.0" type="qcurve" smooth="yes" name="inserted"/>
      <point x="415.0" y="185.0"/>
      <point x="612.0" y="100.0"/>
      <point x="702.0" y="100.0" type="qcurve" smooth="yes"/>
      <point x="780.0" y="100.0" name="inserted"/>
      <point x="958.0" y="165.0"/>
      <point x="1047.0" y="211.0" type="qcurve"/>
      <point x="1098.0" y="89.0" type="line"/>
      <point x="995.0" y="40.0" name="inserted"/>
      <point x="782.0" y="-30.0"/>
      <point x="701.0" y="-30.0" type="qcurve" smooth="yes"/>
      <point x="545.0" y="-30.0"/>
      <point x="310.0" y="65.0"/>
      <point x="248.0" y="150.0" type="qcurve" smooth="yes" name="inserted"/>
      <point x="185.0" y="235.0"/>
      <point x="117" y="471"/>
      <point x="115" y="577" type="qcurve" smooth="yes"/>
      <point x="113" y="677"/>
      <point x="189" y="896"/>
      <point x="249" y="982" type="qcurve" smooth="yes" name="inserted"/>
      <point x="308" y="1068"/>
      <point x="557" y="1172"/>
      <point x="692" y="1172" type="qcurve" smooth="yes"/>
      <point x="802" y="1172"/>
      <point x="1001" y="1091"/>
      <point x="1061" y="1019" type="qcurve" smooth="yes" name="inserted"/>
      <point x="1120" y="946"/>
      <point x="1179" y="767"/>
      <point x="1179" y="644" type="qcurve" smooth="yes"/>
    </contour>
    <contour>
      <point x="288" y="659" type="qcurve"/>
      <point x="1027" y="659" type="line"/>
      <point x="1027" y="845"/>
      <point x="845" y="1045"/>
      <point x="691" y="1045" type="qcurve" smooth="yes"/>
      <point x="614" y="1045"/>
      <point x="424" y="971"/>
      <point x="384" y="916" type="qcurve" smooth="yes" name="inserted"/>
      <point x="344" y="860"/>
      <point x="296" y="745"/>
    </contour>
  </outline>
</glyph>
<glyph name="f" format="1">
  <advance width="816"/>
  <unicode hex="0066"/>
  <outline>
    <contour>
      <point x="447" y="2" type="qcurve"/>
      <point x="280" y="3" type="line"/>
      <point x="280" y="3"/>
      <point x="279" y="1052"/>
      <point x="279" y="1052" type="qcurve"/>
      <point x="78" y="1052" type="line"/>
      <point x="78.0" y="1171.0" type="line"/>
      <point x="279.0" y="1171.0" type="line"/>
      <point x="289.0" y="1386.0"/>
      <point x="460" y="1608"/>
      <point x="663" y="1608" type="qcurve"/>
      <point x="738" y="1608" type="line"/>
      <point x="738" y="1465" type="line"/>
      <point x="659" y="1465" type="line"/>
      <point x="550" y="1465" name="inserted"/>
      <point x="454" y="1327"/>
      <point x="445" y="1171" type="qcurve"/>
      <point x="703" y="1171" type="line"/>
      <point x="703" y="1052" type="line"/>
      <point x="446" y="1052" type="line"/>
      <point x="446" y="1052"/>
      <point x="447" y="2"/>
    </contour>
  </outline>
</glyph>
<glyph name="g" format="1">
  <advance width="1268"/>
  <unicode hex="0067"/>
  <outline>
    <contour>
      <point x="951" y="494" type="qcurve"/>
      <point x="951" y="262"/>
      <point x="711" y="120"/>
      <point x="584" y="120" type="qcurve" smooth="yes"/>
      <point x="468" y="120"/>
      <point x="204" y="333"/>
      <point x="204" y="563" type="qcurve" smooth="yes"/>
      <point x="204" y="731"/>
      <point x="422" y="992"/>
      <point x="584" y="992" type="qcurve" smooth="yes"/>
      <point x="749" y="992"/>
      <point x="953" y="788"/>
    </contour>
    <contour>
      <point x="1202.0" y="1084.0"/>
      <point x="997.0" y="1084.0"/>
      <point x="997.0" y="1084.0" type="qcurve" smooth="yes"/>
      <point x="979.0" y="1084.0"/>
      <point x="956" y="1064"/>
      <point x="956" y="1049" type="qcurve"/>
      <point x="956" y="973" type="line"/>
      <point x="901" y="1025"/>
      <point x="719" y="1113"/>
      <point x="589" y="1113" type="qcurve" smooth="yes"/>
      <point x="342" y="1113"/>
      <point x="65" y="778"/>
      <point x="66" y="563" type="qcurve" smooth="yes"/>
      <point x="67" y="300"/>
      <point x="388" y="0"/>
      <point x="585" y="0" type="qcurve" smooth="yes"/>
      <point x="715" y="0"/>
      <point x="900" y="76"/>
      <point x="962" y="141" type="qcurve"/>
      <point x="962" y="-161" type="line"/>
      <point x="932" y="-249"/>
      <point x="684" y="-382"/>
      <point x="444" y="-337" type="qcurve" smooth="yes"/>
      <point x="397" y="-328"/>
      <point x="260" y="-278"/>
      <point x="218" y="-258" type="qcurve"/>
      <point x="166" y="-390" type="line"/>
      <point x="213" y="-409"/>
      <point x="365" y="-464"/>
      <point x="421" y="-473" type="qcurve" smooth="yes"/>
      <point x="701" y="-517"/>
      <point x="1000" y="-380"/>
      <point x="1060" y="-285" type="qcurve" smooth="yes"/>
      <point x="1070" y="-268"/>
      <point x="1085" y="-232"/>
      <point x="1089" y="-213" type="qcurve"/>
      <point x="1089" y="891" type="line"/>
      <point x="1089" y="891" type="line"/>
      <point x="1089" y="920"/>
      <point x="1104" y="960"/>
      <point x="1132" y="960" type="qcurve" smooth="yes"/>
      <point x="1132" y="960"/>
      <point x="1202" y="960"/>
      <point x="1202" y="960" type="qcurve"/>
      <point x="1202" y="1084" type="line"/>
    </contour>
  </outline>
</glyph>
<glyph name="h" format="1">
  <advance width="1440"/>
  <unicode hex="0068"/>
  <outline>
    <contour>
      <point x="1006" y="232" type="qcurve" smooth="yes"/>
      <point x="1006" y="834" type="line" smooth="yes"/>
      <point x="1006" y="963"/>
      <point x="913" y="1075"/>
      <point x="801" y="1075" type="qcurve" smooth="yes"/>
      <point x="704.5" y="1075.0" name="inserted"/>
      <point x="515.0" y="999.5"/>
      <point x="422" y="924" type="qcurve"/>
      <point x="422.0" y="924.0"/>
      <point x="422" y="0"/>
      <point x="422" y="0" type="qcurve"/>
      <point x="260" y="0" type="line"/>
      <point x="260" y="0"/>
      <point x="260.0" y="1454.0"/>
      <point x="260" y="1454" type="qcurve"/>
      <point x="117" y="1455" type="line"/>
      <point x="117" y="1577" type="line"/>
      <point x="334" y="1577" type="line" smooth="yes"/>
      <point x="365.5" y="1577.0" name="inserted"/>
      <point x="397.0" y="1546.5"/>
      <point x="397" y="1516" type="qcurve" smooth="yes"/>
      <point x="397" y="1030" type="line"/>
      <point x="503.5" y="1115.0" name="inserted"/>
      <point x="720.5" y="1200.0"/>
      <point x="831" y="1200" type="qcurve" smooth="yes"/>
      <point x="1010" y="1200"/>
      <point x="1167" y="1020"/>
      <point x="1167" y="834" type="qcurve" smooth="yes"/>
      <point x="1167" y="250" type="line" smooth="yes"/>
      <point x="1167" y="194" name="inserted"/>
      <point x="1211" y="143"/>
      <point x="1255" y="143" type="qcurve"/>
      <point x="1360" y="143" type="line"/>
      <point x="1360" y="0" type="line"/>
      <point x="1188" y="0" type="line"/>
      <point x="1097" y="0" name="inserted"/>
      <point x="1006" y="116"/>
    </contour>
  </outline>
</glyph>
<glyph name="i" format="1">
  <advance width="610"/>
  <unicode hex="0069"/>
  <outline>
    <contour>
      <point x="361" y="1018" type="qcurve" smooth="yes"/>
      <point x="361" y="224" type="line" smooth="yes"/>
      <point x="361" y="168" name="inserted"/>
      <point x="406" y="124"/>
      <point x="451" y="124" type="qcurve"/>
      <point x="555" y="124" type="line"/>
      <point x="555" y="0" type="line"/>
      <point x="382" y="0" type="line"/>
      <point x="299" y="0" name="inserted"/>
      <point x="223" y="88"/>
      <point x="223" y="204" type="qcurve" smooth="yes"/>
      <point x="223" y="960" type="line"/>
      <point x="100" y="960" type="line"/>
      <point x="100" y="1084" type="line"/>
      <point x="296" y="1084" type="line" smooth="yes"/>
      <point x="327" y="1084" name="inserted"/>
      <point x="361" y="1050"/>
    </contour>
    <contour>
      <point x="276" y="1286" type="qcurve" smooth="yes"/>
      <point x="235" y="1286"/>
      <point x="171" y="1347"/>
      <point x="171" y="1388" type="qcurve" smooth="yes"/>
      <point x="171" y="1431"/>
      <point x="235" y="1495"/>
      <point x="276" y="1495" type="qcurve" smooth="yes"/>
      <point x="319" y="1495"/>
      <point x="380" y="1431"/>
      <point x="380" y="1388" type="qcurve" smooth="yes"/>
      <point x="380" y="1347"/>
      <point x="319" y="1286"/>
    </contour>
  </outline>
</glyph>
<glyph name="j" format="1">
  <advance width="621"/>
  <unicode hex="006A"/>
  <outline>
    <contour>
      <point x="381" y="1280" type="qcurve" smooth="yes"/>
      <point x="343" y="1280"/>
      <point x="283" y="1337"/>
      <point x="283" y="1375" type="qcurve" smooth="yes"/>
      <point x="283" y="1415"/>
      <point x="343" y="1474"/>
      <point x="381" y="1474" type="qcurve" smooth="yes"/>
      <point x="421" y="1474"/>
      <point x="477" y="1415"/>
      <point x="477" y="1375" type="qcurve" smooth="yes"/>
      <point x="477" y="1337"/>
      <point x="421" y="1280"/>
    </contour>
    <contour>
      <point x="460" y="1019" type="qcurve" smooth="yes"/>
      <point x="460" y="-38" type="line" smooth="yes"/>
      <point x="460" y="-159"/>
      <point x="443" y="-325"/>
      <point x="396" y="-378" type="qcurve" name="inserted"/>
      <point x="340" y="-422"/>
      <point x="237" y="-447"/>
      <point x="125" y="-447" type="qcurve"/>
      <point x="-37" y="-447" type="line"/>
      <point x="-37" y="-310" type="line"/>
      <point x="125" y="-310" type="line"/>
      <point x="192" y="-310"/>
      <point x="265" y="-297"/>
      <point x="291" y="-263" type="qcurve" smooth="yes" name="inserted"/>
      <point x="316" y="-229"/>
      <point x="322" y="-120"/>
      <point x="322" y="-34" type="qcurve" smooth="yes"/>
      <point x="322" y="960" type="line"/>
      <point x="145" y="960" type="line"/>
      <point x="145" y="1084" type="line"/>
      <point x="398" y="1084" type="line" smooth="yes"/>
      <point x="429" y="1084" name="inserted"/>
      <point x="460" y="1051"/>
    </contour>
  </outline>
</glyph>
<glyph name="k" format="1">
  <advance width="1235"/>
  <unicode hex="006B"/>
  <outline>
    <contour>
      <point x="1006" y="183" type="line" smooth="yes"/>
      <point x="1026" y="150"/>
      <point x="1077" y="132"/>
      <point x="1104" y="130" type="qcurve"/>
      <point x="1195" y="130" type="line"/>
      <point x="1195" y="1" type="line"/>
      <point x="1057" y="0" type="line"/>
      <point x="1003" y="0" name="inserted"/>
      <point x="915" y="58"/>
      <point x="885" y="101" type="qcurve" smooth="yes"/>
      <point x="561" y="575" type="line"/>
      <point x="422" y="575" type="line"/>
      <point x="422.0" y="575.0"/>
      <point x="421" y="0"/>
      <point x="421" y="0" type="qcurve"/>
      <point x="260" y="0" type="line"/>
      <point x="260.0" y="0.0"/>
      <point x="260.0" y="1454.0"/>
      <point x="260" y="1454" type="qcurve"/>
      <point x="117" y="1454" type="line"/>
      <point x="117" y="1577" type="line"/>
      <point x="358" y="1577" type="line" smooth="yes"/>
      <point x="390.0" y="1577.0" name="inserted"/>
      <point x="422.0" y="1545.0"/>
      <point x="422" y="1513" type="qcurve" smooth="yes"/>
      <point x="422" y="686" type="line"/>
      <point x="584" y="686" type="line"/>
      <point x="893" y="1130" type="line" smooth="yes"/>
      <point x="907.5" y="1150.5" name="inserted"/>
      <point x="945.5" y="1171.0"/>
      <point x="969" y="1171" type="qcurve" smooth="yes"/>
      <point x="1135" y="1171" type="line"/>
      <point x="1135" y="1050" type="line"/>
      <point x="1006" y="1049" type="line"/>
      <point x="702" y="621" type="line"/>
    </contour>
  </outline>
</glyph>
<glyph name="l" format="1">
  <advance width="580"/>
  <unicode hex="006C"/>
  <outline>
    <contour>
      <point x="327" y="1431" type="qcurve" smooth="yes"/>
      <point x="327" y="235" type="line" smooth="yes"/>
      <point x="327" y="179" name="inserted"/>
      <point x="371" y="124"/>
      <point x="415" y="124" type="qcurve"/>
      <point x="520" y="124" type="line"/>
      <point x="520" y="0" type="line"/>
      <point x="381" y="0" type="line"/>
      <point x="283" y="0" name="inserted"/>
      <point x="189" y="104"/>
      <point x="189" y="220" type="qcurve" smooth="yes"/>
      <point x="189" y="1358" type="line"/>
      <point x="66" y="1358" type="line"/>
      <point x="66" y="1495" type="line"/>
      <point x="266" y="1495" type="line" smooth="yes"/>
      <point x="297" y="1495" name="inserted"/>
      <point x="327" y="1463"/>
    </contour>
  </outline>
</glyph>
<glyph name="m" format="1">
  <advance width="2089.0"/>
  <unicode hex="006D"/>
  <outline>
    <contour>
      <point x="953.0" y="0.0" type="line"/>
      <point x="953.0" y="747.0" type="line" smooth="yes"/>
      <point x="953.0" y="876.0"/>
      <point x="829.0" y="973.0"/>
      <point x="716.0" y="973.0" type="qcurve" smooth="yes"/>
      <point x="631.0" y="973.0" name="inserted"/>
      <point x="484.0" y="862"/>
      <point x="420.0" y="805" type="qcurve"/>
      <point x="420.0" y="805"/>
      <point x="420.0" y="0.0"/>
      <point x="420.0" y="0.0" type="qcurve"/>
      <point x="258.0" y="0.0" type="line"/>
      <point x="258.0" y="0.0"/>
      <point x="258.0" y="948.0"/>
      <point x="258.0" y="948.0" type="qcurve"/>
      <point x="115.0" y="948.0" type="line"/>
      <point x="115.0" y="1084.0" type="line"/>
      <point x="332.0" y="1084.0" type="line" smooth="yes"/>
      <point x="364.0" y="1084.0" name="inserted"/>
      <point x="402.0" y="1054"/>
      <point x="402.0" y="1023.0" type="qcurve" smooth="yes"/>
      <point x="402.0" y="963" type="line"/>
      <point x="450.0" y="1012" name="inserted"/>
      <point x="626.0" y="1113.0"/>
      <point x="732.0" y="1113.0" type="qcurve" smooth="yes"/>
      <point x="840.0" y="1113.0" name="inserted"/>
      <point x="1004.0" y="1034.0"/>
      <point x="1040.0" y="955.0" type="qcurve"/>
      <point x="1138.0" y="1034.0" name="inserted"/>
      <point x="1321.0" y="1113.0"/>
      <point x="1413.0" y="1113.0" type="qcurve" smooth="yes"/>
      <point x="1601.0" y="1113.0"/>
      <point x="1811.0" y="933.0"/>
      <point x="1811.0" y="747.0" type="qcurve" smooth="yes"/>
      <point x="1811.0" y="239.0" type="line" smooth="yes"/>
      <point x="1811.0" y="183.0" name="inserted"/>
      <point x="1855.0" y="136.0"/>
      <point x="1899.0" y="136.0" type="qcurve"/>
      <point x="2004.0" y="136.0" type="line"/>
      <point x="2004.0" y="-2.0" type="line"/>
      <point x="1846.0" y="-2.0" type="line"/>
      <point x="1748.0" y="-2.0" name="inserted"/>
      <point x="1649.0" y="87.0"/>
      <point x="1649.0" y="203.0" type="qcurve" smooth="yes"/>
      <point x="1649.0" y="747.0" type="line" smooth="yes"/>
      <point x="1649.0" y="876.0"/>
      <point x="1508.0" y="975.0"/>
      <point x="1395.0" y="975.0" type="qcurve" smooth="yes"/>
      <point x="1313.0" y="975.0" name="inserted"/>
      <point x="1147.0" y="863.0"/>
      <point x="1115.0" y="807.0" type="qcurve"/>
      <point x="1115.0" y="0.0" type="line"/>
    </contour>
  </outline>
</glyph>
<glyph name="n" format="1">
  <advance width="1376"/>
  <unicode hex="006E"/>
  <outline>
    <contour>
      <point x="995" y="232" type="qcurve" smooth="yes"/>
      <point x="995" y="747" type="line" smooth="yes"/>
      <point x="995" y="876"/>
      <point x="828" y="976"/>
      <point x="715" y="976" type="qcurve" smooth="yes"/>
      <point x="619" y="976" name="inserted"/>
      <point x="433" y="854"/>
      <point x="380" y="805" type="qcurve"/>
      <point x="380" y="805"/>
      <point x="380" y="0"/>
      <point x="380" y="0" type="qcurve"/>
      <point x="219" y="0" type="line"/>
      <point x="219" y="0"/>
      <point x="219" y="948"/>
      <point x="219" y="948" type="qcurve"/>
      <point x="75" y="948" type="line"/>
      <point x="75" y="1084" type="line"/>
      <point x="292" y="1084" type="line" smooth="yes"/>
      <point x="324" y="1084" name="inserted"/>
      <point x="358" y="1054"/>
      <point x="358" y="1023" type="qcurve" smooth="yes"/>
      <point x="358" y="963" type="line"/>
      <point x="467" y="1048" name="inserted"/>
      <point x="619" y="1113"/>
      <point x="727" y="1113" type="qcurve" smooth="yes"/>
      <point x="905" y="1113"/>
      <point x="1157" y="933"/>
      <point x="1157" y="747" type="qcurve" smooth="yes"/>
      <point x="1157" y="248" type="line" smooth="yes"/>
      <point x="1157" y="192" name="inserted"/>
      <point x="1201" y="136"/>
      <point x="1245" y="136" type="qcurve"/>
      <point x="1331" y="136" type="line"/>
      <point x="1331" y="0" type="line"/>
      <point x="1192" y="0" type="line"/>
      <point x="1094" y="0" name="inserted"/>
      <point x="995" y="116"/>
    </contour>
  </outline>
</glyph>
<glyph name="o" format="1">
  <advance width="1291.0"/>
  <unicode hex="006F"/>
  <outline>
    <contour>
      <point x="1075" y="372"/>
      <point x="820" y="118"/>
      <point x="646" y="118" type="qcurve" smooth="yes"/>
      <point x="472" y="118"/>
      <point x="216" y="372"/>
      <point x="216" y="548" type="qcurve" smooth="yes"/>
      <point x="216" y="722"/>
      <point x="472" y="977"/>
      <point x="646" y="977" type="qcurve" smooth="yes"/>
      <point x="820" y="977"/>
      <point x="1075" y="722"/>
      <point x="1075" y="548" type="qcurve" smooth="yes"/>
    </contour>
    <contour>
      <point x="646" y="1115" type="qcurve" smooth="yes"/>
      <point x="412" y="1115"/>
      <point x="78" y="781"/>
      <point x="78" y="547" type="qcurve" smooth="yes"/>
      <point x="78" y="314"/>
      <point x="412" y="-20"/>
      <point x="646" y="-20" type="qcurve" smooth="yes"/>
      <point x="880" y="-20"/>
      <point x="1213" y="314"/>
      <point x="1213" y="547" type="qcurve" smooth="yes"/>
      <point x="1213" y="781"/>
      <point x="880" y="1115"/>
    </contour>
  </outline>
</glyph>
<glyph name="p" format="1">
  <advance width="1469.0"/>
  <unicode hex="0070"/>
  <outline>
    <contour>
      <point x="777.0" y="148.0" type="qcurve" smooth="yes"/>
      <point x="942.0" y="148.0" name="inserted"/>
      <point x="1164" y="335"/>
      <point x="1165" y="572" type="qcurve"/>
      <point x="1164" y="784"/>
      <point x="983" y="973"/>
      <point x="781" y="973" type="qcurve" smooth="yes"/>
      <point x="668" y="973" name="inserted"/>
      <point x="468" y="828"/>
      <point x="397" y="734" type="qcurve"/>
      <point x="397.0" y="253.0" type="line"/>
      <point x="460.0" y="218.0" name="inserted"/>
      <point x="699.0" y="148.0"/>
    </contour>
    <contour>
      <point x="90.0" y="1084.0" type="line"/>
      <point x="303.0" y="1084.0" type="line" smooth="yes"/>
      <point x="335.0" y="1084.0" name="inserted"/>
      <point x="371.0" y="1059.0"/>
      <point x="371.0" y="1006.0" type="qcurve" smooth="yes"/>
      <point x="371.0" y="913.0" type="line"/>
      <point x="452.0" y="1012.0" name="inserted"/>
      <point x="660" y="1115"/>
      <point x="784" y="1115" type="qcurve" smooth="yes"/>
      <point x="1071" y="1115"/>
      <point x="1324" y="814"/>
      <point x="1324" y="573" type="qcurve" smooth="yes"/>
      <point x="1324" y="330"/>
      <point x="1044.0" y="0.0"/>
      <point x="779.0" y="0.0" type="qcurve" smooth="yes"/>
      <point x="707.0" y="0.0"/>
      <point x="473.0" y="53.0"/>
      <point x="396.0" y="92.0" type="qcurve"/>
      <point x="396.0" y="-490.0" type="line"/>
      <point x="234.0" y="-490.0" type="line"/>
      <point x="234.0" y="948.0" type="line"/>
      <point x="90.0" y="948.0" type="line"/>
    </contour>
  </outline>
</glyph>
<glyph name="q" format="1">
  <advance width="1439"/>
  <unicode hex="0071"/>
  <outline>
    <contour>
      <point x="601" y="-29" type="qcurve" smooth="yes"/>
      <point x="486" y="-29"/>
      <point x="257" y="80"/>
      <point x="206" y="168" type="qcurve" smooth="yes" name="inserted"/>
      <point x="155" y="256"/>
      <point x="106" y="475"/>
      <point x="106" y="586" type="qcurve" smooth="yes"/>
      <point x="106" y="690"/>
      <point x="161" y="909"/>
      <point x="222" y="998" type="qcurve" smooth="yes" name="inserted"/>
      <point x="282" y="1087"/>
      <point x="510" y="1200"/>
      <point x="645" y="1200" type="qcurve" smooth="yes"/>
      <point x="772" y="1200" name="inserted"/>
      <point x="1034" y="1087"/>
      <point x="1085" y="973" type="qcurve"/>
      <point x="1085" y="1110" type="line" smooth="yes"/>
      <point x="1085" y="1141" name="inserted"/>
      <point x="1117" y="1171"/>
      <point x="1149" y="1171" type="qcurve" smooth="yes"/>
      <point x="1323" y="1171" type="line"/>
      <point x="1323" y="1045" type="line"/>
      <point x="1179" y="1045" type="line"/>
      <point x="1179" y="-490" type="line"/>
      <point x="1018" y="-490" type="line"/>
      <point x="1018" y="124" type="line"/>
      <point x="943" y="39" name="inserted"/>
      <point x="710" y="-29"/>
    </contour>
    <contour>
      <point x="1018" y="686" type="line" smooth="yes"/>
      <point x="1018" y="893"/>
      <point x="772" y="1060"/>
      <point x="643" y="1060" type="qcurve" smooth="yes"/>
      <point x="477" y="1060"/>
      <point x="266" y="813"/>
      <point x="266" y="586" type="qcurve" smooth="yes"/>
      <point x="266" y="489"/>
      <point x="300" y="313"/>
      <point x="337" y="245" type="qcurve" smooth="yes" name="inserted"/>
      <point x="374" y="176"/>
      <point x="537" y="100"/>
      <point x="629" y="100" type="qcurve" smooth="yes"/>
      <point x="716" y="100" name="inserted"/>
      <point x="949" y="213"/>
      <point x="1018" y="306" type="qcurve"/>
    </contour>
  </outline>
</glyph>
<glyph name="r" format="1">
  <advance width="856"/>
  <unicode hex="0072"/>
  <outline>
    <contour>
      <point x="440" y="573" type="qcurve" smooth="yes"/>
      <point x="440.0" y="573.0"/>
      <point x="441" y="2"/>
      <point x="441" y="2" type="qcurve"/>
      <point x="279" y="2" type="line"/>
      <point x="279" y="2"/>
      <point x="279.0" y="1049.0"/>
      <point x="279" y="1049" type="qcurve"/>
      <point x="135" y="1049" type="line" smooth="yes"/>
      <point x="135" y="1171" type="line"/>
      <point x="352" y="1171" type="line" smooth="yes"/>
      <point x="384.0" y="1171.0" name="inserted"/>
      <point x="416.0" y="1139.5"/>
      <point x="416" y="1108" type="qcurve" smooth="yes"/>
      <point x="416" y="854" type="line"/>
      <point x="442" y="924"/>
      <point x="526" y="1049"/>
      <point x="581.5" y="1095.0" type="qcurve" smooth="yes" name="inserted"/>
      <point x="637" y="1141"/>
      <point x="772" y="1196"/>
      <point x="852" y="1200" type="qcurve"/>
      <point x="852" y="1059" type="line"/>
      <point x="766" y="1055"/>
      <point x="624" y="956"/>
      <point x="568" y="893" type="qcurve" smooth="yes" name="inserted"/>
      <point x="512" y="829"/>
      <point x="440" y="680"/>
    </contour>
  </outline>
</glyph>
<glyph name="s" format="1">
  <advance width="1041"/>
  <unicode hex="0073"/>
  <outline>
    <contour>
      <point x="772" y="556" type="qcurve" smooth="yes"/>
      <point x="746" y="572"/>
      <point x="689" y="601"/>
      <point x="659" y="614" type="qcurve"/>
      <point x="639" y="624"/>
      <point x="597" y="642"/>
      <point x="576" y="650" type="qcurve" smooth="yes"/>
      <point x="551" y="660"/>
      <point x="515" y="680"/>
      <point x="492" y="690" type="qcurve" smooth="yes"/>
      <point x="489" y="691"/>
      <point x="482" y="694"/>
      <point x="479" y="696" type="qcurve"/>
      <point x="478" y="696" type="line"/>
      <point x="468" y="700"/>
      <point x="446" y="710"/>
      <point x="436" y="715" type="qcurve" smooth="yes"/>
      <point x="401" y="732"/>
      <point x="358" y="774"/>
      <point x="335" y="798" type="qcurve" smooth="yes"/>
      <point x="312" y="821"/>
      <point x="288" y="883"/>
      <point x="288" y="920" type="qcurve" smooth="yes"/>
      <point x="288" y="962"/>
      <point x="344" y="1030"/>
      <point x="377" y="1056" type="qcurve" smooth="yes"/>
      <point x="409" y="1081"/>
      <point x="502" y="1107"/>
      <point x="562" y="1107" type="qcurve" smooth="yes"/>
      <point x="616" y="1107"/>
      <point x="745" y="1076"/>
      <point x="781" y="1046" type="qcurve"/>
      <point x="809" y="1005"/>
      <point x="806" y="953"/>
      <point x="810" y="889" type="qcurve"/>
      <point x="944" y="889" type="line"/>
      <point x="943" y="969"/>
      <point x="931" y="1098"/>
      <point x="876" y="1141" type="qcurve" smooth="yes"/>
      <point x="820" y="1184"/>
      <point x="639" y="1228"/>
      <point x="549" y="1228" type="qcurve" smooth="yes"/>
      <point x="459" y="1228"/>
      <point x="322" y="1186"/>
      <point x="268" y="1144" type="qcurve" smooth="yes"/>
      <point x="213" y="1102"/>
      <point x="143" y="985"/>
      <point x="143" y="910" type="qcurve" smooth="yes"/>
      <point x="143" y="861"/>
      <point x="167" y="780"/>
      <point x="190" y="749" type="qcurve" smooth="yes"/>
      <point x="213" y="717"/>
      <point x="267" y="663"/>
      <point x="302" y="642" type="qcurve" smooth="yes"/>
      <point x="328" y="626"/>
      <point x="359" y="597"/>
      <point x="389" y="584" type="qcurve"/>
      <point x="409" y="574"/>
      <point x="451" y="556"/>
      <point x="472" y="548" type="qcurve" smooth="yes"/>
      <point x="497" y="538"/>
      <point x="533" y="518"/>
      <point x="556" y="508" type="qcurve" smooth="yes"/>
      <point x="559" y="507"/>
      <point x="566" y="504"/>
      <point x="569" y="502" type="qcurve"/>
      <point x="571" y="502" type="line"/>
      <point x="581" y="497"/>
      <point x="602" y="488"/>
      <point x="612" y="483" type="qcurve" smooth="yes"/>
      <point x="647" y="466"/>
      <point x="707" y="424"/>
      <point x="730" y="400" type="qcurve" smooth="yes"/>
      <point x="753" y="377"/>
      <point x="777" y="315"/>
      <point x="777" y="278" type="qcurve" smooth="yes"/>
      <point x="777" y="236"/>
      <point x="744" y="168"/>
      <point x="712" y="142" type="qcurve" smooth="yes"/>
      <point x="679" y="117"/>
      <point x="585" y="91"/>
      <point x="525" y="91" type="qcurve" smooth="yes"/>
      <point x="471" y="91"/>
      <point x="381" y="122"/>
      <point x="346" y="152" type="qcurve" smooth="yes"/>
      <point x="310" y="183"/>
      <point x="256" y="276"/>
      <point x="239" y="337" type="qcurve"/>
      <point x="97" y="304" type="line"/>
      <point x="115" y="224"/>
      <point x="190" y="100"/>
      <point x="246" y="57" type="qcurve" smooth="yes"/>
      <point x="301" y="14"/>
      <point x="448" y="-30"/>
      <point x="538" y="-30" type="qcurve" smooth="yes"/>
      <point x="628" y="-30"/>
      <point x="773" y="12"/>
      <point x="828" y="54" type="qcurve" smooth="yes"/>
      <point x="882" y="96"/>
      <point x="937" y="213"/>
      <point x="937" y="288" type="qcurve" smooth="yes"/>
      <point x="937" y="337"/>
      <point x="913" y="418"/>
      <point x="890" y="449" type="qcurve" smooth="yes"/>
      <point x="867" y="481"/>
      <point x="807" y="535"/>
    </contour>
  </outline>
</glyph>
<glyph name="t" format="1">
  <advance width="723"/>
  <unicode hex="0074"/>
  <outline>
    <contour>
      <point x="80" y="1059" type="line"/>
      <point x="80" y="1171" type="line"/>
      <point x="258" y="1171" type="line"/>
      <point x="258" y="1438" type="line"/>
      <point x="420" y="1475" type="line"/>
      <point x="420" y="1171" type="line"/>
      <point x="643" y="1171" type="line"/>
      <point x="643" y="1059" type="line"/>
      <point x="420" y="1059" type="line"/>
      <point x="420" y="221" type="line" smooth="yes"/>
      <point x="420.0" y="166.0" name="inserted"/>
      <point x="465.0" y="111.0"/>
      <point x="510" y="111" type="qcurve" smooth="yes"/>
      <point x="538.5" y="111.0" name="inserted"/>
      <point x="596.0" y="122.0"/>
      <point x="625" y="133" type="qcurve"/>
      <point x="643" y="8" type="line"/>
      <point x="595.0" y="-10.5" name="inserted"/>
      <point x="498.0" y="-29.0"/>
      <point x="449" y="-29" type="qcurve" smooth="yes"/>
      <point x="350" y="-29"/>
      <point x="258" y="84"/>
      <point x="258" y="207" type="qcurve" smooth="yes"/>
      <point x="258" y="1059" type="line"/>
    </contour>
  </outline>
</glyph>
<glyph name="u" format="1">
  <advance width="1448"/>
  <unicode hex="0075"/>
  <outline>
    <contour>
      <point x="1219" y="1084" type="line"/>
      <point x="1219" y="248" type="line" smooth="yes"/>
      <point x="1219" y="220"/>
      <point x="1231" y="178"/>
      <point x="1242" y="164" type="qcurve" smooth="yes"/>
      <point x="1254" y="150"/>
      <point x="1289" y="136"/>
      <point x="1312" y="136" type="qcurve" smooth="yes"/>
      <point x="1383" y="136" type="line"/>
      <point x="1383" y="0" type="line"/>
      <point x="1257" y="0" type="line" smooth="yes"/>
      <point x="1170" y="0"/>
      <point x="1086" y="70"/>
      <point x="1086" y="140" type="qcurve" smooth="yes"/>
      <point x="1086" y="231" type="line"/>
      <point x="1069" y="125"/>
      <point x="958" y="40"/>
      <point x="914" y="17" type="qcurve" smooth="yes"/>
      <point x="867" y="-7"/>
      <point x="733" y="-30"/>
      <point x="683" y="-30" type="qcurve" smooth="yes"/>
      <point x="584" y="-30"/>
      <point x="482" y="3"/>
      <point x="408" y="46" type="qcurve" smooth="yes"/>
      <point x="333" y="90"/>
      <point x="244.0" y="242.0"/>
      <point x="244.0" y="337.0" type="qcurve" smooth="yes"/>
      <point x="244" y="948" type="line"/>
      <point x="96" y="948" type="line"/>
      <point x="96" y="1084" type="line"/>
      <point x="340" y="1084" type="line" smooth="yes"/>
      <point x="357" y="1084"/>
      <point x="384" y="1077"/>
      <point x="393" y="1069" type="qcurve" smooth="yes"/>
      <point x="402" y="1061"/>
      <point x="411" y="1037"/>
      <point x="411" y="1021" type="qcurve" smooth="yes"/>
      <point x="411.0" y="358.0" type="line" smooth="yes"/>
      <point x="411.0" y="282.0"/>
      <point x="452" y="190"/>
      <point x="500" y="164" type="qcurve" smooth="yes"/>
      <point x="548" y="138"/>
      <point x="615" y="111"/>
      <point x="681" y="110" type="qcurve" smooth="yes"/>
      <point x="733" y="109"/>
      <point x="864" y="143"/>
      <point x="926" y="185" type="qcurve" smooth="yes"/>
      <point x="989" y="227"/>
      <point x="1052" y="476"/>
      <point x="1052" y="586" type="qcurve" smooth="yes"/>
      <point x="1052" y="1084" type="line"/>
    </contour>
  </outline>
</glyph>
<glyph name="v" format="1">
  <advance width="1195"/>
  <unicode hex="0076"/>
  <outline>
    <contour>
      <point x="996" y="1084" type="line" smooth="yes"/>
      <point x="981" y="1084"/>
      <point x="957" y="1078"/>
      <point x="948" y="1071" type="qcurve" smooth="yes"/>
      <point x="938" y="1065"/>
      <point x="925" y="1045"/>
      <point x="920" y="1031" type="qcurve" smooth="yes"/>
      <point x="617.0" y="172.0" type="line"/>
      <point x="276" y="1031" type="line" smooth="yes"/>
      <point x="271" y="1045"/>
      <point x="257" y="1065"/>
      <point x="248" y="1071" type="qcurve" smooth="yes"/>
      <point x="239" y="1078"/>
      <point x="214" y="1084"/>
      <point x="200" y="1084" type="qcurve" smooth="yes"/>
      <point x="39" y="1084" type="line"/>
      <point x="39" y="948" type="line"/>
      <point x="136" y="948" type="line"/>
      <point x="529.0" y="0.0" type="line"/>
      <point x="708.0" y="0.0" type="line"/>
      <point x="1057" y="948" type="line"/>
      <point x="1156" y="948" type="line"/>
      <point x="1156" y="1084" type="line"/>
    </contour>
  </outline>
</glyph>
<glyph name="w" format="1">
  <advance width="1678"/>
  <unicode hex="0077"/>
  <outline>
    <contour>
      <point x="1494" y="1084" type="line" smooth="yes"/>
      <point x="1462" y="1084"/>
      <point x="1426" y="1056"/>
      <point x="1418" y="1031" type="qcurve" smooth="yes"/>
      <point x="1171" y="172" type="line"/>
      <point x="929" y="1084" type="line"/>
      <point x="750" y="1084" type="line"/>
      <point x="508" y="172" type="line"/>
      <point x="262" y="1031" type="line"/>
      <point x="252" y="1057"/>
      <point x="214" y="1084"/>
      <point x="186" y="1084" type="qcurve" smooth="yes"/>
      <point x="39" y="1084" type="line"/>
      <point x="39" y="960" type="line"/>
      <point x="137" y="960" type="line"/>
      <point x="425" y="0" type="line"/>
      <point x="607" y="0" type="line"/>
      <point x="841" y="930" type="line"/>
      <point x="1074" y="0" type="line"/>
      <point x="1253" y="0" type="line"/>
      <point x="1539" y="960" type="line"/>
      <point x="1639" y="960" type="line"/>
      <point x="1639" y="1084" type="line"/>
    </contour>
  </outline>
</glyph>
<glyph name="x" format="1">
  <advance width="1126.0"/>
  <unicode hex="0078"/>
  <outline>
    <contour>
      <point x="660.0" y="551.0" type="line"/>
      <point x="978" y="948" type="line"/>
      <point x="1078" y="948" type="line"/>
      <point x="1078" y="1084" type="line"/>
      <point x="932.0" y="1084.0" type="line" smooth="yes"/>
      <point x="919.0" y="1084.0"/>
      <point x="895.0" y="1079.0"/>
      <point x="886.0" y="1073.0" type="qcurve" smooth="yes"/>
      <point x="876.0" y="1068.0"/>
      <point x="860.0" y="1051.0"/>
      <point x="852.0" y="1041.0" type="qcurve" smooth="yes"/>
      <point x="567.0" y="667.0" type="line"/>
      <point x="567.0" y="667.0"/>
      <point x="264.0" y="1041.0"/>
      <point x="264.0" y="1041.0" type="qcurve" smooth="yes"/>
      <point x="257.0" y="1052.0"/>
      <point x="239.0" y="1068.0"/>
      <point x="230.0" y="1073.0" type="qcurve" smooth="yes"/>
      <point x="220.0" y="1079.0"/>
      <point x="196.0" y="1084.0"/>
      <point x="184.0" y="1084.0" type="qcurve"/>
      <point x="39" y="1084" type="line"/>
      <point x="39" y="948" type="line"/>
      <point x="139" y="948" type="line"/>
      <point x="470.0" y="551.0" type="line"/>
      <point x="60.0" y="0.0" type="line"/>
      <point x="249.0" y="0.0" type="line"/>
      <point x="565.0" y="424.0" type="line"/>
      <point x="908.0" y="0.0" type="line"/>
      <point x="1087.0" y="0.0" type="line"/>
    </contour>
  </outline>
</glyph>
<glyph name="y" format="1">
  <advance width="1209"/>
  <unicode hex="0079"/>
  <outline>
    <contour>
      <point x="1017.0" y="1084.0" type="line" smooth="yes"/>
      <point x="987" y="1084"/>
      <point x="949.0" y="1057.0"/>
      <point x="941.0" y="1031.0" type="qcurve" smooth="yes"/>
      <point x="629.0" y="152.0" type="line"/>
      <point x="278.0" y="1031.0" type="line"/>
      <point x="270.0" y="1057.0"/>
      <point x="232.0" y="1084.0"/>
      <point x="202.0" y="1084.0" type="qcurve" smooth="yes"/>
      <point x="39" y="1084" type="line"/>
      <point x="39" y="960" type="line"/>
      <point x="145" y="960" type="line"/>
      <point x="558" y="0" type="line"/>
      <point x="492.0" y="-239.0" type="line" smooth="yes"/>
      <point x="483" y="-271"/>
      <point x="448" y="-320"/>
      <point x="427" y="-336" type="qcurve" smooth="yes"/>
      <point x="406" y="-352"/>
      <point x="343.0" y="-368.0"/>
      <point x="313.0" y="-368.0" type="qcurve" smooth="yes"/>
      <point x="276.745324965" y="-368.0"/>
      <point x="145.734926771" y="-318.846536552"/>
      <point x="108.0" y="-297.0" type="qcurve"/>
      <point x="63.0" y="-415.0" type="line"/>
      <point x="109.825862506" y="-443.502698916"/>
      <point x="270.970548292" y="-499.0"/>
      <point x="326.0" y="-499.0" type="qcurve" smooth="yes"/>
      <point x="382.391262562" y="-499.0"/>
      <point x="485.248059631" y="-469.77950255"/>
      <point x="521.0" y="-438.0" type="qcurve" smooth="yes"/>
      <point x="557.296863921" y="-405.736120959"/>
      <point x="608" y="-299"/>
      <point x="636" y="-220" type="qcurve" smooth="yes"/>
      <point x="1070" y="960" type="line"/>
      <point x="1170" y="960" type="line"/>
      <point x="1170" y="1084" type="line"/>
    </contour>
  </outline>
</glyph>
<glyph name="z" format="1">
  <advance width="1167"/>
  <unicode hex="007A"/>
  <outline>
    <contour>
      <point x="1040.0" y="272.0" type="line"/>
      <point x="1040.0" y="63.0" type="line" smooth="yes"/>
      <point x="1040.0" y="31.5" name="inserted"/>
      <point x="1010.0" y="0.0"/>
      <point x="979.0" y="0.0" type="qcurve" smooth="yes"/>
      <point x="123" y="0" type="line"/>
      <point x="123" y="112" type="line"/>
      <point x="819" y="948" type="line"/>
      <point x="291" y="948" type="line"/>
      <point x="291" y="812" type="line"/>
      <point x="155" y="812" type="line"/>
      <point x="155.0" y="1021.0" type="line" smooth="yes"/>
      <point x="155.0" y="1052.0" name="inserted"/>
      <point x="188.0" y="1084.0"/>
      <point x="219.0" y="1084.0" type="qcurve" smooth="yes"/>
      <point x="1016" y="1084" type="line"/>
      <point x="1016" y="970" type="line"/>
      <point x="325" y="136" type="line"/>
      <point x="904" y="136" type="line"/>
      <point x="904.0" y="272.0" type="line"/>
    </contour>
  </outline>
</glyph>
<glyph name="braceleft" format="1">
  <advance width="715"/>
  <unicode hex="007B"/>
  <outline>
    <contour>
      <point x="399.0" y="1202.0" type="qcurve"/>
      <point x="416.0" y="893.0" type="line"/>
      <point x="416.0" y="831.0"/>
      <point x="354" y="754"/>
      <point x="305" y="750" type="qcurve"/>
      <point x="305" y="745" type="line"/>
      <point x="354" y="741"/>
      <point x="416.0" y="664.0"/>
      <point x="416.0" y="602.0" type="qcurve"/>
      <point x="399.0" y="293.0" type="line"/>
      <point x="399.0" y="133.0" name="inserted"/>
      <point x="527.0" y="0.0"/>
      <point x="655.0" y="0.0" type="qcurve"/>
      <point x="655.0" y="-139.0" type="line"/>
      <point x="443.0" y="-139.0" name="inserted"/>
      <point x="231.0" y="68.5"/>
      <point x="231.0" y="276.0" type="qcurve"/>
      <point x="248.0" y="588.0" type="line"/>
      <point x="248.0" y="643.0"/>
      <point x="156.0" y="694.0"/>
      <point x="96.0" y="694.0" type="qcurve"/>
      <point x="96.0" y="801.0" type="line"/>
      <point x="156.0" y="801.0"/>
      <point x="248.0" y="852.0"/>
      <point x="248.0" y="907.0" type="qcurve"/>
      <point x="247.0" y="923.5" name="inserted"/>
      <point x="245.0" y="962.5"/>
      <point x="244.0" y="985.0" type="qcurve" smooth="yes"/>
      <point x="242.0" y="1024.0"/>
      <point x="236.0" y="1141.0"/>
      <point x="231.0" y="1219.0" type="qcurve"/>
      <point x="231.0" y="1426.5" name="inserted"/>
      <point x="443.0" y="1634.0"/>
      <point x="655.0" y="1634.0" type="qcurve"/>
      <point x="655.0" y="1495.0" type="line"/>
      <point x="527.0" y="1495.0" name="inserted"/>
      <point x="399.0" y="1362.0"/>
    </contour>
  </outline>
</glyph>
<glyph name="bar" format="1">
  <advance width="657"/>
  <unicode hex="007C"/>
  <outline>
    <contour>
      <point x="414" y="-207" type="line"/>
      <point x="244" y="-207" type="line"/>
      <point x="244" y="1577" type="line"/>
      <point x="414" y="1577" type="line"/>
    </contour>
  </outline>
</glyph>
<glyph name="braceright" format="1">
  <advance width="715"/>
  <unicode hex="007D"/>
  <outline>
    <contour>
      <point x="315" y="293" type="qcurve"/>
      <point x="299" y="602" type="line"/>
      <point x="299" y="664"/>
      <point x="360" y="741"/>
      <point x="410" y="745" type="qcurve"/>
      <point x="410" y="750" type="line"/>
      <point x="360" y="754"/>
      <point x="299" y="831"/>
      <point x="299" y="893" type="qcurve"/>
      <point x="315" y="1202" type="line"/>
      <point x="315.0" y="1362.0" name="inserted"/>
      <point x="187" y="1495"/>
      <point x="59" y="1495" type="qcurve"/>
      <point x="59" y="1634" type="line"/>
      <point x="271.0" y="1634.0" name="inserted"/>
      <point x="483.0" y="1426.5"/>
      <point x="483" y="1219" type="qcurve"/>
      <point x="467" y="907" type="line"/>
      <point x="467" y="852"/>
      <point x="559" y="801"/>
      <point x="618" y="801" type="qcurve"/>
      <point x="618" y="694" type="line"/>
      <point x="559" y="694"/>
      <point x="467" y="643"/>
      <point x="467" y="588" type="qcurve"/>
      <point x="468.0" y="571.5" name="inserted"/>
      <point x="470.0" y="532.5"/>
      <point x="471" y="510" type="qcurve" smooth="yes"/>
      <point x="473" y="471"/>
      <point x="479" y="354"/>
      <point x="483" y="276" type="qcurve"/>
      <point x="483.0" y="68.5" name="inserted"/>
      <point x="271.0" y="-139.0"/>
      <point x="59" y="-139" type="qcurve"/>
      <point x="59" y="0" type="line"/>
      <point x="187" y="0" name="inserted"/>
      <point x="315.0" y="133.0"/>
    </contour>
  </outline>
</glyph>
<glyph name="asciitilde" format="1">
  <advance width="1196"/>
  <unicode hex="007E"/>
  <outline>
    <contour>
      <point x="420" y="805" type="qcurve" smooth="yes"/>
      <point x="566" y="805"/>
      <point x="661" y="648"/>
      <point x="774" y="648" type="qcurve" smooth="yes"/>
      <point x="853" y="648"/>
      <point x="900" y="762"/>
      <point x="900" y="811" type="qcurve"/>
      <point x="1005" y="811" type="line"/>
      <point x="1005" y="665"/>
      <point x="878" y="550"/>
      <point x="779" y="550" type="qcurve" smooth="yes"/>
      <point x="633" y="550"/>
      <point x="538" y="708"/>
      <point x="426" y="708" type="qcurve" smooth="yes"/>
      <point x="346" y="708"/>
      <point x="300" y="592"/>
      <point x="300" y="543" type="qcurve"/>
      <point x="195" y="543" type="line"/>
      <point x="195" y="689"/>
      <point x="321" y="805"/>
    </contour>
  </outline>
</glyph>
<glyph name="exclamdown" format="1">
  <advance width="575"/>
  <unicode hex="00A1"/>
  <outline>
    <contour>
      <point x="244" y="823" type="line"/>
      <point x="332" y="823" type="line"/>
      <point x="332" y="-311" type="line"/>
      <point x="195" y="-311" type="line"/>
    </contour>
    <contour>
      <point x="287" y="983" type="qcurve" smooth="yes"/>
      <point x="244" y="983"/>
      <point x="178" y="1049"/>
      <point x="178" y="1092" type="qcurve" smooth="yes"/>
      <point x="178" y="1137"/>
      <point x="244" y="1200"/>
      <point x="287" y="1200" type="qcurve" smooth="yes"/>
      <point x="332" y="1200"/>
      <point x="395" y="1137"/>
      <point x="395" y="1092" type="qcurve" smooth="yes"/>
      <point x="395" y="1049"/>
      <point x="332" y="983"/>
    </contour>
  </outline>
</glyph>
<glyph name="sterling" format="1">
  <advance width="1255"/>
  <unicode hex="00A3"/>
  <outline>
    <contour>
      <point x="1021" y="136" type="line"/>
      <point x="1021" y="272" type="line"/>
      <point x="1157" y="272" type="line"/>
      <point x="1157" y="0" type="line"/>
      <point x="164" y="0" type="line"/>
      <point x="164" y="94" type="line"/>
      <point x="216" y="137" name="inserted"/>
      <point x="268" y="248"/>
      <point x="268" y="315" type="qcurve" smooth="yes"/>
      <point x="268" y="647" type="line"/>
      <point x="80" y="647" type="line"/>
      <point x="80" y="773" type="line"/>
      <point x="268" y="773" type="line"/>
      <point x="268" y="1063" type="line" smooth="yes"/>
      <point x="268" y="1288"/>
      <point x="469" y="1524"/>
      <point x="700" y="1524" type="qcurve" smooth="yes"/>
      <point x="881" y="1524" name="inserted"/>
      <point x="1102" y="1339"/>
      <point x="1143" y="1153" type="qcurve"/>
      <point x="997" y="1118" type="line"/>
      <point x="962" y="1259" name="inserted"/>
      <point x="812" y="1399"/>
      <point x="698" y="1399" type="qcurve" smooth="yes"/>
      <point x="551" y="1399"/>
      <point x="432" y="1229"/>
      <point x="432" y="1063" type="qcurve" smooth="yes"/>
      <point x="432" y="773" type="line"/>
      <point x="842" y="773" type="line"/>
      <point x="842" y="647" type="line"/>
      <point x="432" y="647" type="line"/>
      <point x="432" y="336" type="line" smooth="yes"/>
      <point x="432" y="252"/>
      <point x="416" y="183"/>
      <point x="369" y="136" type="qcurve"/>
    </contour>
  </outline>
</glyph>
<glyph name="brokenbar" format="1">
  <advance width="657"/>
  <unicode hex="00A6"/>
  <outline>
    <contour>
      <point x="414" y="915" type="line"/>
      <point x="244" y="915" type="line"/>
      <point x="244" y="1577" type="line"/>
      <point x="414" y="1577" type="line"/>
    </contour>
    <contour>
      <point x="414" y="-207" type="line"/>
      <point x="244" y="-207" type="line"/>
      <point x="244" y="453" type="line"/>
      <point x="414" y="453" type="line"/>
    </contour>
  </outline>
</glyph>
<glyph name="copyright" format="1">
  <advance width="1475"/>
  <unicode hex="00A9"/>
  <outline>
    <contour>
      <point x="747" y="1317" type="qcurve" smooth="yes"/>
      <point x="817" y="1317"/>
      <point x="982" y="1253"/>
      <point x="1000" y="1178" type="qcurve"/>
      <point x="936" y="1162" type="line"/>
      <point x="917" y="1215"/>
      <point x="805" y="1249"/>
      <point x="749" y="1249" type="qcurve" smooth="yes"/>
      <point x="640" y="1249"/>
      <point x="497" y="1101"/>
      <point x="497" y="983" type="qcurve" smooth="yes"/>
      <point x="497" y="866"/>
      <point x="640" y="706"/>
      <point x="752" y="706" type="qcurve" smooth="yes"/>
      <point x="853" y="706"/>
      <point x="950" y="788"/>
      <point x="950" y="788" type="qcurve"/>
      <point x="1005" y="744" type="line"/>
      <point x="1005" y="744"/>
      <point x="872" y="638"/>
      <point x="751" y="638" type="qcurve" smooth="yes"/>
      <point x="607" y="638"/>
      <point x="423" y="840"/>
      <point x="423" y="983" type="qcurve" smooth="yes"/>
      <point x="423" y="1124"/>
      <point x="609" y="1317"/>
    </contour>
    <contour>
      <point x="291" y="1409" type="qcurve" smooth="yes"/>
      <point x="369" y="1493" name="inserted"/>
      <point x="592" y="1577"/>
      <point x="737" y="1577" type="qcurve" smooth="yes"/>
      <point x="881" y="1577"/>
      <point x="1106" y="1489"/>
      <point x="1184" y="1409" type="qcurve" smooth="yes" name="inserted"/>
      <point x="1262" y="1329"/>
      <point x="1341" y="1110"/>
      <point x="1341" y="981" type="qcurve" smooth="yes"/>
      <point x="1341" y="852"/>
      <point x="1251" y="629"/>
      <point x="1172" y="546" type="qcurve" smooth="yes" name="inserted"/>
      <point x="1092" y="463"/>
      <point x="870" y="367"/>
      <point x="737" y="367" type="qcurve" smooth="yes"/>
      <point x="602" y="367"/>
      <point x="381" y="461"/>
      <point x="301" y="544" type="qcurve" smooth="yes" name="inserted"/>
      <point x="221" y="627"/>
      <point x="133" y="852"/>
      <point x="133" y="981" type="qcurve" smooth="yes"/>
      <point x="133" y="1111" name="inserted"/>
      <point x="212" y="1325"/>
    </contour>
    <contour>
      <point x="358" y="590" type="qcurve" smooth="yes"/>
      <point x="432" y="512" name="inserted"/>
      <point x="622" y="434"/>
      <point x="737" y="434" type="qcurve" smooth="yes"/>
      <point x="854" y="434"/>
      <point x="1047" y="518"/>
      <point x="1117" y="592" type="qcurve" smooth="yes" name="inserted"/>
      <point x="1186" y="666"/>
      <point x="1264" y="864"/>
      <point x="1264" y="979" type="qcurve" smooth="yes"/>
      <point x="1264" y="1096"/>
      <point x="1192" y="1290"/>
      <point x="1125" y="1361" type="qcurve" smooth="yes" name="inserted"/>
      <point x="1057" y="1432"/>
      <point x="860" y="1510"/>
      <point x="737" y="1510" type="qcurve" smooth="yes"/>
      <point x="612" y="1510"/>
      <point x="418" y="1432"/>
      <point x="351" y="1361" type="qcurve" smooth="yes" name="inserted"/>
      <point x="283" y="1290"/>
      <point x="211" y="1096"/>
      <point x="211" y="979" type="qcurve" smooth="yes"/>
      <point x="211" y="863" name="inserted"/>
      <point x="285" y="668"/>
    </contour>
  </outline>
</glyph>
<glyph name="guillemotleft" format="1">
  <advance width="913"/>
  <unicode hex="00AB"/>
  <outline>
    <contour>
      <point x="295" y="955" type="line"/>
      <point x="471" y="955" type="line"/>
      <point x="242" y="657" type="line"/>
      <point x="471" y="370" type="line"/>
      <point x="295" y="370" type="line"/>
      <point x="96" y="610" type="line"/>
      <point x="96" y="705" type="line"/>
    </contour>
    <contour>
      <point x="660" y="954" type="line"/>
      <point x="830" y="954" type="line"/>
      <point x="604" y="657" type="line"/>
      <point x="830" y="371" type="line"/>
      <point x="660" y="371" type="line"/>
      <point x="461" y="610" type="line"/>
      <point x="461" y="705" type="line"/>
    </contour>
  </outline>
</glyph>
<glyph name="registered" format="1">
  <advance width="1475"/>
  <unicode hex="00AE"/>
  <outline>
    <contour>
      <point x="611" y="990" type="line"/>
      <point x="738" y="990" type="line" smooth="yes"/>
      <point x="806" y="990"/>
      <point x="874" y="1054"/>
      <point x="874" y="1120" type="qcurve" smooth="yes"/>
      <point x="874" y="1189"/>
      <point x="806" y="1251"/>
      <point x="738" y="1251" type="qcurve" smooth="yes"/>
      <point x="611" y="1251" type="line"/>
    </contour>
    <contour>
      <point x="611" y="933" type="line"/>
      <point x="611" y="670" type="line"/>
      <point x="541" y="670" type="line"/>
      <point x="541" y="1251" type="line"/>
      <point x="482" y="1251" type="line"/>
      <point x="482" y="1310" type="line"/>
      <point x="738" y="1310" type="line" smooth="yes"/>
      <point x="838" y="1310"/>
      <point x="942" y="1214"/>
      <point x="942" y="1120" type="qcurve" smooth="yes"/>
      <point x="942" y="1051" name="inserted"/>
      <point x="879" y="961"/>
      <point x="830" y="945" type="qcurve"/>
      <point x="850" y="936" name="inserted"/>
      <point x="876" y="903"/>
      <point x="886" y="879" type="qcurve" smooth="yes"/>
      <point x="955" y="729" type="line"/>
      <point x="1012" y="729" type="line"/>
      <point x="1013" y="670" type="line"/>
      <point x="924" y="670" type="line" smooth="yes"/>
      <point x="913" y="670" name="inserted"/>
      <point x="897" y="680"/>
      <point x="892" y="690" type="qcurve" smooth="yes"/>
      <point x="816" y="870" type="line" smooth="yes"/>
      <point x="808" y="890"/>
      <point x="789" y="914"/>
      <point x="777" y="921" type="qcurve" smooth="yes" name="inserted"/>
      <point x="765" y="928"/>
      <point x="729" y="933"/>
      <point x="705" y="933" type="qcurve" smooth="yes"/>
    </contour>
    <contour>
      <point x="291" y="1410" type="qcurve" smooth="yes"/>
      <point x="369" y="1494" name="inserted"/>
      <point x="592" y="1578"/>
      <point x="737" y="1578" type="qcurve" smooth="yes"/>
      <point x="881" y="1578"/>
      <point x="1106" y="1490"/>
      <point x="1184" y="1410" type="qcurve" smooth="yes" name="inserted"/>
      <point x="1262" y="1330"/>
      <point x="1341" y="1111"/>
      <point x="1341" y="982" type="qcurve" smooth="yes"/>
      <point x="1341" y="853"/>
      <point x="1251" y="630"/>
      <point x="1172" y="547" type="qcurve" smooth="yes" name="inserted"/>
      <point x="1092" y="464"/>
      <point x="870" y="368"/>
      <point x="737" y="368" type="qcurve" smooth="yes"/>
      <point x="602" y="368"/>
      <point x="381" y="462"/>
      <point x="301" y="545" type="qcurve" smooth="yes" name="inserted"/>
      <point x="221" y="628"/>
      <point x="133" y="853"/>
      <point x="133" y="982" type="qcurve" smooth="yes"/>
      <point x="133" y="1112" name="inserted"/>
      <point x="212" y="1326"/>
    </contour>
    <contour>
      <point x="358" y="591" type="qcurve" smooth="yes"/>
      <point x="432" y="513" name="inserted"/>
      <point x="622" y="435"/>
      <point x="737" y="435" type="qcurve" smooth="yes"/>
      <point x="854" y="435"/>
      <point x="1047" y="519"/>
      <point x="1117" y="593" type="qcurve" smooth="yes" name="inserted"/>
      <point x="1186" y="667"/>
      <point x="1264" y="865"/>
      <point x="1264" y="980" type="qcurve" smooth="yes"/>
      <point x="1264" y="1097"/>
      <point x="1192" y="1291"/>
      <point x="1125" y="1362" type="qcurve" smooth="yes" name="inserted"/>
      <point x="1057" y="1433"/>
      <point x="860" y="1511"/>
      <point x="737" y="1511" type="qcurve" smooth="yes"/>
      <point x="612" y="1511"/>
      <point x="418" y="1433"/>
      <point x="351" y="1362" type="qcurve" smooth="yes" name="inserted"/>
      <point x="283" y="1291"/>
      <point x="211" y="1097"/>
      <point x="211" y="980" type="qcurve" smooth="yes"/>
      <point x="211" y="864" name="inserted"/>
      <point x="285" y="669"/>
    </contour>
  </outline>
</glyph>
<glyph name="acute" format="1">
  <advance width="643"/>
  <unicode hex="00B4"/>
  <outline>
    <contour>
      <point x="584" y="1529" type="line"/>
      <point x="184" y="1273" type="line"/>
      <point x="102" y="1399" type="line"/>
      <point x="496" y="1657" type="line"/>
    </contour>
  </outline>
</glyph>
<glyph name="uni00B5" format="1">
  <advance width="1440"/>
  <unicode hex="00B5"/>
  <outline>
    <contour>
      <point x="1159" y="1108" type="qcurve" smooth="yes"/>
      <point x="1159" y="221" type="line" smooth="yes"/>
      <point x="1159.0" y="165.0" name="inserted"/>
      <point x="1203.0" y="109.0"/>
      <point x="1247" y="109" type="qcurve" smooth="yes"/>
      <point x="1262.5" y="109.0" name="inserted"/>
      <point x="1305.5" y="115.0"/>
      <point x="1333" y="121" type="qcurve"/>
      <point x="1352" y="-2" type="line"/>
      <point x="1312.0" y="-15.5" name="inserted"/>
      <point x="1233.0" y="-29.0"/>
      <point x="1194" y="-29" type="qcurve" smooth="yes"/>
      <point x="1112.0" y="-29.0" name="inserted"/>
      <point x="1015.5" y="50.0"/>
      <point x="1001" y="129" type="qcurve"/>
      <point x="894.5" y="50.0" name="inserted"/>
      <point x="694.0" y="-29.0"/>
      <point x="600" y="-29" type="qcurve" smooth="yes"/>
      <point x="527.5" y="-29.0" name="inserted"/>
      <point x="424.0" y="10.0"/>
      <point x="393" y="49" type="qcurve"/>
      <point x="393" y="-465" type="line"/>
      <point x="244" y="-477" type="line"/>
      <point x="244" y="1171" type="line"/>
      <point x="336" y="1171" type="line" smooth="yes"/>
      <point x="369.5" y="1171.0" name="inserted"/>
      <point x="403.0" y="1139.5"/>
      <point x="403" y="1108" type="qcurve" smooth="yes"/>
      <point x="403" y="338" type="line" smooth="yes"/>
      <point x="403" y="209"/>
      <point x="498" y="94"/>
      <point x="610" y="94" type="qcurve" smooth="yes"/>
      <point x="706.5" y="94.0" name="inserted"/>
      <point x="900.0" y="173.0"/>
      <point x="997" y="252" type="qcurve"/>
      <point x="997" y="1171" type="line"/>
      <point x="1098" y="1171" type="line" smooth="yes"/>
      <point x="1128.5" y="1171.0" name="inserted"/>
      <point x="1159.0" y="1139.5"/>
    </contour>
  </outline>
</glyph>
<glyph name="guillemotright" format="1">
  <advance width="913"/>
  <unicode hex="00BB"/>
  <outline>
    <contour>
      <point x="461" y="971" type="line"/>
      <point x="526" y="1018" type="line"/>
      <point x="797" y="705" type="line"/>
      <point x="797" y="610" type="line"/>
      <point x="526" y="301" type="line"/>
      <point x="461" y="344" type="line"/>
      <point x="653" y="657" type="line"/>
    </contour>
    <contour>
      <point x="96" y="971" type="line"/>
      <point x="164" y="1018" type="line"/>
      <point x="432" y="705" type="line"/>
      <point x="432" y="610" type="line"/>
      <point x="164" y="301" type="line"/>
      <point x="96" y="344" type="line"/>
      <point x="289" y="657" type="line"/>
    </contour>
  </outline>
</glyph>
<glyph name="AE" format="1">
  <advance width="1909"/>
  <unicode hex="00C6"/>
  <outline>
    <contour>
      <point x="1675" y="1495" type="line" smooth="yes"/>
      <point x="1707.0" y="1495.0" name="inserted"/>
      <point x="1739.0" y="1463.5"/>
      <point x="1739" y="1432" type="qcurve" smooth="yes"/>
      <point x="1739" y="1159" type="line"/>
      <point x="1632" y="1159" type="line"/>
      <point x="1616" y="1382" type="line"/>
      <point x="1063" y="1382" type="line"/>
      <point x="1063" y="750" type="line"/>
      <point x="1645" y="750" type="line"/>
      <point x="1645" y="637" type="line"/>
      <point x="1063" y="637" type="line"/>
      <point x="1063" y="111" type="line"/>
      <point x="1636" y="111" type="line"/>
      <point x="1653" y="328" type="line"/>
      <point x="1759" y="328" type="line"/>
      <point x="1759" y="63" type="line" smooth="yes"/>
      <point x="1759.0" y="31.5" name="inserted"/>
      <point x="1727.5" y="0.0"/>
      <point x="1696" y="0" type="qcurve" smooth="yes"/>
      <point x="772" y="0" type="line"/>
      <point x="772" y="106" type="line"/>
      <point x="899" y="121" type="line"/>
      <point x="899" y="637" type="line"/>
      <point x="420" y="637" type="line"/>
      <point x="231" y="53" type="line" smooth="yes"/>
      <point x="222.0" y="26.5" name="inserted"/>
      <point x="185.5" y="0.0"/>
      <point x="158" y="0" type="qcurve" smooth="yes"/>
      <point x="-2" y="0" type="line"/>
      <point x="-2" y="106" type="line"/>
      <point x="96" y="121" type="line"/>
      <point x="549" y="1495" type="line"/>
    </contour>
    <contour>
      <point x="899" y="1382" type="line"/>
      <point x="664" y="1382" type="line"/>
      <point x="457" y="750" type="line"/>
      <point x="899" y="750" type="line"/>
    </contour>
  </outline>
</glyph>
<glyph name="Eth" format="1">
  <advance width="1470"/>
  <unicode hex="00D0"/>
  <outline>
    <contour>
      <point x="150" y="1495" type="line"/>
      <point x="711" y="1495" type="line" smooth="yes"/>
      <point x="1018" y="1495"/>
      <point x="1339" y="1114"/>
      <point x="1339" y="748" type="qcurve" smooth="yes"/>
      <point x="1339" y="381"/>
      <point x="1018" y="0"/>
      <point x="711" y="0" type="qcurve" smooth="yes"/>
      <point x="150" y="0" type="line"/>
      <point x="150" y="137" type="line"/>
      <point x="276" y="137" type="line"/>
      <point x="276" y="690" type="line"/>
      <point x="82" y="690" type="line"/>
      <point x="82" y="825" type="line"/>
      <point x="276" y="825" type="line"/>
      <point x="276" y="1358" type="line"/>
      <point x="150" y="1359" type="line"/>
    </contour>
    <contour>
      <point x="788" y="690" type="line"/>
      <point x="440" y="690" type="line"/>
      <point x="440" y="137" type="line"/>
      <point x="719" y="137" type="line" smooth="yes"/>
      <point x="942" y="137"/>
      <point x="1178" y="438"/>
      <point x="1178" y="748" type="qcurve" smooth="yes"/>
      <point x="1178" y="1057"/>
      <point x="942" y="1358"/>
      <point x="719" y="1358" type="qcurve" smooth="yes"/>
      <point x="440" y="1358" type="line"/>
      <point x="440" y="825" type="line"/>
      <point x="788" y="825" type="line"/>
    </contour>
  </outline>
</glyph>
<glyph name="ae" format="1">
  <advance width="1911"/>
  <unicode hex="00E6"/>
  <outline>
    <contour>
      <point x="1794" y="551" type="line"/>
      <point x="987" y="551" type="line"/>
      <point x="987" y="449"/>
      <point x="1034" y="283"/>
      <point x="1080.0" y="222.5" type="qcurve" smooth="yes" name="inserted"/>
      <point x="1126" y="162"/>
      <point x="1262" y="96"/>
      <point x="1352" y="96" type="qcurve" smooth="yes"/>
      <point x="1429.5" y="96.0" name="inserted"/>
      <point x="1596.5" y="142.0"/>
      <point x="1686" y="188" type="qcurve"/>
      <point x="1737" y="70" type="line"/>
      <point x="1633.5" y="20.5" name="inserted"/>
      <point x="1438.0" y="-29.0"/>
      <point x="1346" y="-29" type="qcurve" smooth="yes"/>
      <point x="1176.0" y="-29.0" name="inserted"/>
      <point x="942.5" y="127.0"/>
      <point x="879" y="283" type="qcurve"/>
      <point x="823" y="119"/>
      <point x="582" y="-29"/>
      <point x="430" y="-29" type="qcurve" smooth="yes"/>
      <point x="281" y="-29"/>
      <point x="106" y="131"/>
      <point x="106" y="279" type="qcurve" smooth="yes"/>
      <point x="106" y="375"/>
      <point x="180" y="520"/>
      <point x="260.0" y="568.0" type="qcurve" smooth="yes" name="inserted"/>
      <point x="340" y="616"/>
      <point x="596" y="666"/>
      <point x="780" y="666" type="qcurve" smooth="yes"/>
      <point x="825" y="666" type="line"/>
      <point x="825" y="770" type="line" smooth="yes"/>
      <point x="825" y="858"/>
      <point x="795" y="977"/>
      <point x="762.0" y="1012.0" type="qcurve" smooth="yes" name="inserted"/>
      <point x="729" y="1047"/>
      <point x="627" y="1077"/>
      <point x="555" y="1077" type="qcurve" smooth="yes"/>
      <point x="483.5" y="1077.0" name="inserted"/>
      <point x="325.0" y="1028.0"/>
      <point x="238" y="979" type="qcurve"/>
      <point x="184" y="1102" type="line"/>
      <point x="289.5" y="1151.0" name="inserted"/>
      <point x="490.5" y="1200.0"/>
      <point x="586" y="1200" type="qcurve" smooth="yes"/>
      <point x="723.0" y="1200.0" name="inserted"/>
      <point x="902.0" y="1108.0"/>
      <point x="944" y="1016" type="qcurve"/>
      <point x="1009.5" y="1108.0" name="inserted"/>
      <point x="1201.0" y="1200.0"/>
      <point x="1327" y="1200" type="qcurve" smooth="yes"/>
      <point x="1438" y="1200"/>
      <point x="1612" y="1120"/>
      <point x="1671.5" y="1047.5" type="qcurve" smooth="yes" name="inserted"/>
      <point x="1731" y="975"/>
      <point x="1794" y="774"/>
      <point x="1794" y="651" type="qcurve" smooth="yes"/>
    </contour>
    <contour>
      <point x="991" y="666" type="qcurve"/>
      <point x="1632" y="666" type="line"/>
      <point x="1632" y="852"/>
      <point x="1468" y="1075"/>
      <point x="1315" y="1075" type="qcurve" smooth="yes"/>
      <point x="1237" y="1075"/>
      <point x="1122" y="1012"/>
      <point x="1082.0" y="956.5" type="qcurve" smooth="yes" name="inserted"/>
      <point x="1042" y="901"/>
      <point x="999" y="752"/>
    </contour>
    <contour>
      <point x="825" y="549" type="qcurve"/>
      <point x="537" y="549"/>
      <point x="260" y="436"/>
      <point x="260" y="289" type="qcurve" smooth="yes"/>
      <point x="260" y="197"/>
      <point x="371" y="98"/>
      <point x="471" y="98" type="qcurve" smooth="yes"/>
      <point x="547" y="98"/>
      <point x="676" y="154"/>
      <point x="724.0" y="210.0" type="qcurve" smooth="yes" name="inserted"/>
      <point x="772" y="266"/>
      <point x="825" y="434"/>
    </contour>
  </outline>
</glyph>
<glyph name="oslash" format="1">
  <advance width="1272"/>
  <unicode hex="00F8"/>
  <outline>
    <contour>
      <point x="127" y="586" type="qcurve" smooth="yes"/>
      <point x="127" y="887"/>
      <point x="387" y="1200"/>
      <point x="635" y="1200" type="qcurve" smooth="yes"/>
      <point x="657" y="1200"/>
      <point x="709" y="1194"/>
      <point x="737" y="1190" type="qcurve"/>
      <point x="817" y="1485" type="line"/>
      <point x="944" y="1485" type="line"/>
      <point x="852" y="1151" type="line"/>
      <point x="989" y="1083"/>
      <point x="1147" y="791"/>
      <point x="1147" y="586" type="qcurve" smooth="yes"/>
      <point x="1147" y="285"/>
      <point x="887" y="-29"/>
      <point x="635" y="-29" type="qcurve" smooth="yes"/>
      <point x="610" y="-29"/>
      <point x="561" y="-23"/>
      <point x="535" y="-18" type="qcurve"/>
      <point x="453" y="-319" type="line"/>
      <point x="326" y="-319" type="line"/>
      <point x="418" y="20" type="line"/>
      <point x="281" y="88"/>
      <point x="127" y="381"/>
    </contour>
    <contour>
      <point x="985" y="586" type="qcurve" smooth="yes"/>
      <point x="985.0" y="737.5" name="inserted"/>
      <point x="900.0" y="952.5"/>
      <point x="815" y="1016" type="qcurve"/>
      <point x="567" y="104" type="line"/>
      <point x="580.5" y="100.0" name="inserted"/>
      <point x="614.5" y="96.0"/>
      <point x="635" y="96" type="qcurve" smooth="yes"/>
      <point x="807" y="96"/>
      <point x="985" y="344"/>
    </contour>
    <contour>
      <point x="635" y="1075" type="qcurve" smooth="yes"/>
      <point x="463" y="1075"/>
      <point x="287" y="827"/>
      <point x="287" y="586" type="qcurve" smooth="yes"/>
      <point x="287.0" y="435.5" name="inserted"/>
      <point x="371.0" y="220.5"/>
      <point x="455" y="156" type="qcurve"/>
      <point x="702" y="1067" type="line"/>
      <point x="682.0" y="1071.0" name="inserted"/>
      <point x="648.5" y="1075.0"/>
    </contour>
  </outline>
</glyph>
<glyph name="Lslash" format="1">
  <advance width="1053"/>
  <unicode hex="0141"/>
  <outline>
    <contour>
      <point x="440" y="111" type="line"/>
      <point x="909" y="111" type="line"/>
      <point x="926" y="348" type="line"/>
      <point x="1032" y="348" type="line"/>
      <point x="1032" y="63" type="line" smooth="yes"/>
      <point x="1032.0" y="31.5" name="inserted"/>
      <point x="1000.5" y="0.0"/>
      <point x="969" y="0" type="qcurve" smooth="yes"/>
      <point x="150" y="0" type="line"/>
      <point x="150" y="106" type="line"/>
      <point x="276" y="121" type="line"/>
      <point x="276" y="686" type="line"/>
      <point x="102" y="616" type="line"/>
      <point x="102" y="731" type="line"/>
      <point x="276" y="801" type="line"/>
      <point x="276" y="1372" type="line"/>
      <point x="150" y="1389" type="line"/>
      <point x="150" y="1495" type="line"/>
      <point x="608" y="1495" type="line"/>
      <point x="608" y="1389" type="line"/>
      <point x="440" y="1372" type="line"/>
      <point x="440" y="866" type="line"/>
      <point x="618" y="938" type="line"/>
      <point x="618" y="823" type="line"/>
      <point x="440" y="752" type="line"/>
    </contour>
  </outline>
</glyph>
<glyph name="Euro" format="1">
  <advance width="1272"/>
  <unicode hex="20AC"/>
  <outline>
    <contour>
      <point x="696" y="94" type="qcurve" smooth="yes"/>
      <point x="819.0" y="94.0" name="inserted"/>
      <point x="989.0" y="242.5"/>
      <point x="1036" y="391" type="qcurve"/>
      <point x="1174" y="354" type="line"/>
      <point x="1110.5" y="161.5" name="inserted"/>
      <point x="870.5" y="-31.0"/>
      <point x="694" y="-31" type="qcurve" smooth="yes"/>
      <point x="561" y="-31"/>
      <point x="369" y="63"/>
      <point x="302.5" y="143.0" type="qcurve" smooth="yes" name="inserted"/>
      <point x="236" y="223"/>
      <point x="156" y="434"/>
      <point x="139" y="551" type="qcurve"/>
      <point x="-2" y="551" type="line"/>
      <point x="23" y="645" type="line"/>
      <point x="129" y="645" type="line"/>
      <point x="127" y="666"/>
      <point x="125" y="719"/>
      <point x="125" y="754" type="qcurve" smooth="yes"/>
      <point x="125" y="788"/>
      <point x="125" y="836"/>
      <point x="127" y="852" type="qcurve"/>
      <point x="23" y="852" type="line"/>
      <point x="49" y="946" type="line"/>
      <point x="137" y="946" type="line"/>
      <point x="174" y="1227"/>
      <point x="455" y="1524"/>
      <point x="696" y="1524" type="qcurve" smooth="yes"/>
      <point x="808.0" y="1524.0" name="inserted"/>
      <point x="1036.5" y="1465.5"/>
      <point x="1153" y="1407" type="qcurve"/>
      <point x="1100" y="1284" type="line"/>
      <point x="996.5" y="1341.5" name="inserted"/>
      <point x="794.5" y="1399.0"/>
      <point x="696" y="1399" type="qcurve" smooth="yes"/>
      <point x="528.0" y="1399.0" name="inserted"/>
      <point x="329.5" y="1172.5"/>
      <point x="299" y="946" type="qcurve"/>
      <point x="915" y="946" type="line"/>
      <point x="889" y="852" type="line"/>
      <point x="291" y="852" type="line"/>
      <point x="289" y="838"/>
      <point x="289" y="791"/>
      <point x="289" y="756" type="qcurve" smooth="yes"/>
      <point x="289" y="723"/>
      <point x="291" y="668"/>
      <point x="293" y="645" type="qcurve"/>
      <point x="889" y="645" type="line"/>
      <point x="864" y="551" type="line"/>
      <point x="305" y="551" type="line"/>
      <point x="340.0" y="322.5" name="inserted"/>
      <point x="535.5" y="94.0"/>
    </contour>
  </outline>
</glyph>
<glyph name="uniFB01" format="1">
  <advance width="1423"/>
  <unicode hex="FB01"/>
  <outline>
    <contour>
      <point x="643" y="0" type="line"/>
      <point x="135" y="0" type="line"/>
      <point x="135" y="106" type="line"/>
      <point x="279" y="121" type="line"/>
      <point x="279" y="1059" type="line"/>
      <point x="135" y="1059" type="line"/>
      <point x="135" y="1171" type="line"/>
      <point x="279" y="1171" type="line"/>
      <point x="289" y="1386"/>
      <point x="477" y="1608"/>
      <point x="680" y="1608" type="qcurve" smooth="yes"/>
      <point x="744.5" y="1608.0" name="inserted"/>
      <point x="857.0" y="1581.0"/>
      <point x="905" y="1554" type="qcurve"/>
      <point x="862" y="1434" type="line"/>
      <point x="825.0" y="1458.5" name="inserted"/>
      <point x="732.0" y="1483.0"/>
      <point x="676" y="1483" type="qcurve" smooth="yes"/>
      <point x="566.5" y="1483.0" name="inserted"/>
      <point x="448.5" y="1327.0"/>
      <point x="440" y="1171" type="qcurve"/>
      <point x="682" y="1171" type="line"/>
      <point x="682" y="1059" type="line"/>
      <point x="440" y="1059" type="line"/>
      <point x="440" y="121" type="line"/>
      <point x="643" y="106" type="line"/>
    </contour>
    <contour>
      <point x="1143" y="1108" type="qcurve" smooth="yes"/>
      <point x="1143" y="221" type="line" smooth="yes"/>
      <point x="1143.0" y="165.0" name="inserted"/>
      <point x="1188.0" y="109.0"/>
      <point x="1233" y="109" type="qcurve" smooth="yes"/>
      <point x="1250.5" y="109.0" name="inserted"/>
      <point x="1292.5" y="115.0"/>
      <point x="1317" y="121" type="qcurve"/>
      <point x="1337" y="-2" type="line"/>
      <point x="1297.0" y="-15.5" name="inserted"/>
      <point x="1211.0" y="-29.0"/>
      <point x="1165" y="-29" type="qcurve" smooth="yes"/>
      <point x="1074.0" y="-29.0" name="inserted"/>
      <point x="983.0" y="87.0"/>
      <point x="983" y="203" type="qcurve" smooth="yes"/>
      <point x="983" y="1049" type="line"/>
      <point x="860" y="1065" type="line"/>
      <point x="860" y="1171" type="line"/>
      <point x="1081" y="1171" type="line" smooth="yes"/>
      <point x="1112.0" y="1171.0" name="inserted"/>
      <point x="1143.0" y="1139.5"/>
    </contour>
    <contour>
      <point x="1065" y="1362" type="qcurve" smooth="yes"/>
      <point x="1024" y="1362"/>
      <point x="961" y="1423"/>
      <point x="961" y="1464" type="qcurve" smooth="yes"/>
      <point x="961" y="1507"/>
      <point x="1024" y="1571"/>
      <point x="1065" y="1571" type="qcurve" smooth="yes"/>
      <point x="1108" y="1571"/>
      <point x="1169" y="1507"/>
      <point x="1169" y="1464" type="qcurve" smooth="yes"/>
      <point x="1169" y="1423"/>
      <point x="1108" y="1362"/>
    </contour>
  </outline>
</glyph>
